JosefinSlab-ThinItalic_fik.ufo
<glyph name="quotedbl" format="1">
  <advance width="312"/>
  <unicode hex="0022"/>
  <outline>
    <contour>
      <point x="239" y="472" type="line"/>
      <point x="269" y="720" type="line"/>
      <point x="287" y="720" type="line"/>
      <point x="253" y="472" type="line"/>
    </contour>
    <contour>
      <point x="106" y="472" type="line"/>
      <point x="136" y="720" type="line"/>
      <point x="154" y="720" type="line"/>
      <point x="120" y="472" type="line"/>
    </contour>
  </outline>
</glyph>
<glyph name="numbersign" format="1">
  <advance width="571"/>
  <unicode hex="0023"/>
  <outline>
    <contour>
      <point x="289" y="0" type="line"/>
      <point x="303" y="57"/>
      <point x="329" y="168"/>
      <point x="343" y="225" type="qcurve"/>
      <point x="173" y="225" type="line"/>
      <point x="159" y="168"/>
      <point x="133" y="57"/>
      <point x="119" y="0" type="qcurve"/>
      <point x="105" y="0" type="line"/>
      <point x="119" y="57"/>
      <point x="145" y="168"/>
      <point x="159" y="225" type="qcurve"/>
      <point x="42" y="225" type="line"/>
      <point x="45" y="239" type="line"/>
      <point x="163" y="239" type="line"/>
      <point x="174" y="281"/>
      <point x="192" y="365"/>
      <point x="203" y="407" type="qcurve"/>
      <point x="87" y="407" type="line"/>
      <point x="90" y="421" type="line"/>
      <point x="207" y="421" type="line"/>
      <point x="261" y="643" type="line"/>
      <point x="275" y="643" type="line"/>
      <point x="221" y="421" type="line"/>
      <point x="391" y="421" type="line"/>
      <point x="445" y="643" type="line"/>
      <point x="459" y="643" type="line"/>
      <point x="405" y="421" type="line"/>
      <point x="541" y="421" type="line"/>
      <point x="538" y="407" type="line"/>
      <point x="401" y="407" type="line"/>
      <point x="390" y="365"/>
      <point x="372" y="281"/>
      <point x="361" y="239" type="qcurve"/>
      <point x="496" y="239" type="line"/>
      <point x="493" y="225" type="line"/>
      <point x="357" y="225" type="line"/>
      <point x="343" y="168"/>
      <point x="317" y="57"/>
      <point x="303" y="0" type="qcurve"/>
    </contour>
    <contour>
      <point x="217" y="407" type="line"/>
      <point x="206" y="365"/>
      <point x="188" y="281"/>
      <point x="177" y="239" type="qcurve"/>
      <point x="347" y="239" type="line"/>
      <point x="358" y="281"/>
      <point x="376" y="365"/>
      <point x="387" y="407" type="qcurve"/>
    </contour>
  </outline>
</glyph>
<glyph name="parenright" format="1">
  <advance width="252"/>
  <unicode hex="0029"/>
  <outline>
    <contour>
      <point x="207" y="366" type="qcurve"/>
      <point x="207" y="278"/>
      <point x="167" y="119"/>
      <point x="102" y="-16"/>
      <point x="21" y="-125"/>
      <point x="-20" y="-163" type="qcurve"/>
      <point x="-20" y="-140" type="line"/>
      <point x="18" y="-102"/>
      <point x="94" y="1"/>
      <point x="154" y="129"/>
      <point x="192" y="278"/>
      <point x="192" y="362" type="qcurve"/>
      <point x="192" y="420"/>
      <point x="175" y="527"/>
      <point x="145" y="620"/>
      <point x="107" y="696"/>
      <point x="86" y="724" type="qcurve"/>
      <point x="92" y="747" type="line"/>
      <point x="115" y="719"/>
      <point x="157" y="639"/>
      <point x="188" y="541"/>
      <point x="207" y="427"/>
    </contour>
  </outline>
</glyph>
<glyph name="two" format="1">
  <advance width="527"/>
  <unicode hex="0032"/>
  <outline>
    <contour>
      <point x="74" y="14" type="qcurve"/>
      <point x="419" y="14" type="line"/>
      <point x="436" y="148" type="line"/>
      <point x="450" y="148" type="line"/>
      <point x="433" y="14" type="line"/>
      <point x="434" y="14" type="line"/>
      <point x="432" y="0" type="line"/>
      <point x="36" y="0" type="line"/>
      <point x="111" y="64"/>
      <point x="253" y="190"/>
      <point x="363" y="312"/>
      <point x="430" y="428"/>
      <point x="430" y="483" type="qcurve"/>
      <point x="430" y="529"/>
      <point x="403" y="591"/>
      <point x="362" y="629"/>
      <point x="312" y="644"/>
      <point x="290" y="644" type="qcurve"/>
      <point x="234" y="644"/>
      <point x="162" y="602"/>
      <point x="120" y="541"/>
      <point x="103" y="473"/>
      <point x="103" y="447" type="qcurve"/>
      <point x="103" y="389"/>
      <point x="131" y="355" type="qcurve"/>
      <point x="121" y="347" type="line"/>
      <point x="106" y="367"/>
      <point x="89" y="415"/>
      <point x="89" y="447" type="qcurve"/>
      <point x="89" y="490"/>
      <point x="117" y="567"/>
      <point x="169" y="624"/>
      <point x="244" y="658"/>
      <point x="292" y="658" type="qcurve"/>
      <point x="327" y="658"/>
      <point x="384" y="633"/>
      <point x="424" y="588"/>
      <point x="445" y="526"/>
      <point x="445" y="489" type="qcurve"/>
      <point x="445" y="426"/>
      <point x="375" y="305"/>
      <point x="267" y="186"/>
      <point x="136" y="71"/>
    </contour>
  </outline>
</glyph>
<glyph name="three" format="1">
  <advance width="482"/>
  <unicode hex="0033"/>
  <outline>
    <contour>
      <point x="111" y="574" type="line"/>
      <point x="119" y="636" type="line"/>
      <point x="121" y="650" type="line"/>
      <point x="440" y="650" type="line"/>
      <point x="210" y="398" type="line"/>
      <point x="252" y="400"/>
      <point x="325" y="375"/>
      <point x="379" y="326"/>
      <point x="409" y="257"/>
      <point x="409" y="216" type="qcurve"/>
      <point x="409" y="170"/>
      <point x="371" y="89"/>
      <point x="307" y="28"/>
      <point x="224" y="-8"/>
      <point x="179" y="-8" type="qcurve"/>
      <point x="134" y="-8"/>
      <point x="62" y="28"/>
      <point x="38" y="58" type="qcurve"/>
      <point x="40" y="61"/>
      <point x="47" y="68"/>
      <point x="50" y="71" type="qcurve"/>
      <point x="70" y="42"/>
      <point x="136" y="6"/>
      <point x="178" y="6" type="qcurve"/>
      <point x="220" y="6"/>
      <point x="298" y="40"/>
      <point x="359" y="97"/>
      <point x="395" y="172"/>
      <point x="395" y="214" type="qcurve"/>
      <point x="395" y="250"/>
      <point x="369" y="312"/>
      <point x="323" y="358"/>
      <point x="260" y="384"/>
      <point x="224" y="384" type="qcurve"/>
      <point x="208" y="384"/>
      <point x="175" y="372"/>
      <point x="160" y="361" type="qcurve"/>
      <point x="406" y="636" type="line"/>
      <point x="133" y="636" type="line"/>
      <point x="125" y="574" type="line"/>
    </contour>
  </outline>
</glyph>
<glyph name="four" format="1">
  <advance width="526"/>
  <unicode hex="0034"/>
  <outline>
    <contour>
      <point x="434" y="14" type="line"/>
      <point x="433" y="0" type="line"/>
      <point x="259" y="0" type="line"/>
      <point x="260" y="14" type="line"/>
      <point x="339" y="14" type="line"/>
      <point x="360" y="183" type="line"/>
      <point x="8" y="183" type="line"/>
      <point x="432" y="658" type="line"/>
      <point x="376" y="197" type="line"/>
      <point x="473" y="197" type="line"/>
      <point x="471" y="183" type="line"/>
      <point x="374" y="183" type="line"/>
      <point x="353" y="14" type="line"/>
    </contour>
    <contour>
      <point x="413" y="617" type="line"/>
      <point x="40" y="197" type="line"/>
      <point x="362" y="197" type="line"/>
    </contour>
  </outline>
</glyph>
<glyph name="seven" format="1">
  <advance width="462"/>
  <unicode hex="0037"/>
  <outline>
    <contour>
      <point x="76" y="574" type="line"/>
      <point x="85" y="650" type="line"/>
      <point x="486" y="650" type="line"/>
      <point x="393" y="486"/>
      <point x="208" y="164"/>
      <point x="115" y="0" type="qcurve"/>
      <point x="97" y="0" type="line"/>
      <point x="462" y="636" type="line"/>
      <point x="97" y="636" type="line"/>
      <point x="90" y="574" type="line"/>
    </contour>
  </outline>
</glyph>
<glyph name="greater" format="1">
  <advance width="559"/>
  <unicode hex="003E"/>
  <outline>
    <contour>
      <point x="50" y="-15" type="line"/>
      <point x="52" y="1" type="line"/>
      <point x="493" y="238" type="line"/>
      <point x="110" y="475" type="line"/>
      <point x="112" y="491" type="line"/>
      <point x="519" y="238" type="line"/>
    </contour>
  </outline>
</glyph>
<glyph name="at" format="1">
  <advance width="923"/>
  <unicode hex="0040"/>
  <outline>
    <contour>
      <point x="233" y="168" type="qcurve"/>
      <point x="233" y="212"/>
      <point x="269" y="290"/>
      <point x="330" y="349"/>
      <point x="409" y="383"/>
      <point x="453" y="383" type="qcurve"/>
      <point x="515" y="383"/>
      <point x="604" y="314"/>
      <point x="619" y="260" type="qcurve"/>
      <point x="622" y="289"/>
      <point x="632" y="346"/>
      <point x="637" y="375" type="qcurve"/>
      <point x="647" y="375" type="line"/>
      <point x="602" y="13" type="line"/>
      <point x="689" y="13" type="line"/>
      <point x="753" y="13"/>
      <point x="829" y="121"/>
      <point x="829" y="227" type="qcurve"/>
      <point x="829" y="299"/>
      <point x="778" y="424"/>
      <point x="688" y="517"/>
      <point x="564" y="571"/>
      <point x="491" y="571" type="qcurve"/>
      <point x="406" y="571"/>
      <point x="250" y="504"/>
      <point x="131" y="389"/>
      <point x="60" y="235"/>
      <point x="60" y="149" type="qcurve"/>
      <point x="60" y="77"/>
      <point x="110" y="-47"/>
      <point x="200" y="-140"/>
      <point x="324" y="-193"/>
      <point x="397" y="-193" type="qcurve"/>
      <point x="459" y="-193"/>
      <point x="574" y="-155"/>
      <point x="625" y="-123" type="qcurve"/>
      <point x="632" y="-134" type="line"/>
      <point x="578" y="-168"/>
      <point x="461" y="-207"/>
      <point x="395" y="-207" type="qcurve"/>
      <point x="319" y="-207"/>
      <point x="191" y="-152"/>
      <point x="98" y="-56"/>
      <point x="46" y="74"/>
      <point x="46" y="149" type="qcurve"/>
      <point x="46" y="238"/>
      <point x="120" y="397"/>
      <point x="243" y="516"/>
      <point x="405" y="585"/>
      <point x="493" y="585" type="qcurve"/>
      <point x="569" y="585"/>
      <point x="697" y="530"/>
      <point x="790" y="433"/>
      <point x="843" y="303"/>
      <point x="843" y="228" type="qcurve"/>
      <point x="843" y="157"/>
      <point x="814" y="68"/>
      <point x="768" y="18"/>
      <point x="710" y="0"/>
      <point x="681" y="0" type="qcurve"/>
      <point x="586" y="0" type="line"/>
      <point x="593" y="54" type="line"/>
      <point x="595" y="70"/>
      <point x="600" y="101"/>
      <point x="602" y="117" type="qcurve"/>
      <point x="588" y="90"/>
      <point x="546" y="45"/>
      <point x="495" y="12"/>
      <point x="436" y="-6"/>
      <point x="405" y="-6" type="qcurve"/>
      <point x="367" y="-6"/>
      <point x="304" y="21"/>
      <point x="259" y="68"/>
      <point x="233" y="131"/>
    </contour>
    <contour>
      <point x="248" y="170" type="qcurve"/>
      <point x="248" y="136"/>
      <point x="272" y="77"/>
      <point x="314" y="33"/>
      <point x="372" y="8"/>
      <point x="407" y="8" type="qcurve"/>
      <point x="447" y="8"/>
      <point x="521" y="39"/>
      <point x="578" y="93"/>
      <point x="611" y="165"/>
      <point x="611" y="206" type="qcurve"/>
      <point x="611" y="240"/>
      <point x="587" y="300"/>
      <point x="545" y="344"/>
      <point x="486" y="369"/>
      <point x="451" y="369" type="qcurve"/>
      <point x="410" y="369"/>
      <point x="337" y="337"/>
      <point x="281" y="283"/>
      <point x="248" y="210"/>
    </contour>
  </outline>
</glyph>
<glyph name="B" format="1">
  <advance width="584"/>
  <unicode hex="0042"/>
  <outline>
    <contour>
      <point x="31" y="0" type="line"/>
      <point x="33" y="14" type="line"/>
      <point x="108" y="14" type="line"/>
      <point x="191" y="686" type="line"/>
      <point x="115" y="686" type="line"/>
      <point x="117" y="700" type="line"/>
      <point x="328" y="700" type="line"/>
      <point x="411" y="700"/>
      <point x="511" y="629"/>
      <point x="511" y="548" type="qcurve"/>
      <point x="511" y="516"/>
      <point x="496" y="454"/>
      <point x="463" y="402"/>
      <point x="410" y="362"/>
      <point x="371" y="352" type="qcurve"/>
      <point x="398" y="346"/>
      <point x="447" y="321"/>
      <point x="484" y="282"/>
      <point x="505" y="231"/>
      <point x="505" y="198" type="qcurve"/>
      <point x="505" y="150"/>
      <point x="465" y="76"/>
      <point x="399" y="26"/>
      <point x="314" y="0"/>
      <point x="270" y="0" type="qcurve"/>
    </contour>
    <contour>
      <point x="163" y="344" type="line"/>
      <point x="123" y="14" type="line"/>
      <point x="271" y="14" type="line"/>
      <point x="314" y="14"/>
      <point x="394" y="36"/>
      <point x="455" y="81"/>
      <point x="491" y="149"/>
      <point x="491" y="194" type="qcurve"/>
      <point x="491" y="233"/>
      <point x="458" y="290"/>
      <point x="403" y="326"/>
      <point x="331" y="344"/>
      <point x="292" y="344" type="qcurve"/>
    </contour>
    <contour>
      <point x="205" y="686" type="line"/>
      <point x="165" y="358" type="line"/>
      <point x="312" y="358" type="line"/>
      <point x="356" y="358"/>
      <point x="425" y="387"/>
      <point x="473" y="439"/>
      <point x="498" y="509"/>
      <point x="498" y="551" type="qcurve"/>
      <point x="498" y="623"/>
      <point x="410" y="686"/>
      <point x="338" y="686" type="qcurve"/>
    </contour>
  </outline>
</glyph>
<glyph name="D" format="1">
  <advance width="732"/>
  <unicode hex="0044"/>
  <outline>
    <contour>
      <point x="336" y="700" type="line"/>
      <point x="432" y="700"/>
      <point x="564" y="644"/>
      <point x="646" y="554"/>
      <point x="682" y="442"/>
      <point x="682" y="387" type="qcurve"/>
      <point x="682" y="300"/>
      <point x="616" y="157"/>
      <point x="505" y="55"/>
      <point x="362" y="0"/>
      <point x="284" y="0" type="qcurve"/>
      <point x="31" y="0" type="line"/>
      <point x="33" y="14" type="line"/>
      <point x="108" y="14" type="line"/>
      <point x="191" y="686" type="line"/>
      <point x="115" y="686" type="line"/>
      <point x="117" y="700" type="line"/>
    </contour>
    <contour>
      <point x="292" y="14" type="line"/>
      <point x="365" y="14"/>
      <point x="501" y="67"/>
      <point x="606" y="164"/>
      <point x="669" y="301"/>
      <point x="669" y="385" type="qcurve"/>
      <point x="669" y="438"/>
      <point x="635" y="545"/>
      <point x="557" y="631"/>
      <point x="433" y="685"/>
      <point x="343" y="685" type="qcurve"/>
      <point x="205" y="685" type="line"/>
      <point x="123" y="14" type="line"/>
    </contour>
  </outline>
</glyph>
<glyph name="J" format="1">
  <advance width="293"/>
  <unicode hex="004A"/>
  <outline>
    <contour>
      <point x="227" y="700" type="line"/>
      <point x="226" y="686" type="line"/>
      <point x="225" y="686" type="line"/>
      <point x="152" y="90" type="line"/>
      <point x="145" y="34"/>
      <point x="105" y="-51"/>
      <point x="48" y="-109"/>
      <point x="-23" y="-141"/>
      <point x="-61" y="-142" type="qcurve"/>
      <point x="-59" y="-128" type="line"/>
      <point x="-22" y="-126"/>
      <point x="44" y="-95"/>
      <point x="97" y="-38"/>
      <point x="133" y="42"/>
      <point x="139" y="93" type="qcurve"/>
      <point x="212" y="686" type="line"/>
      <point x="114" y="686" type="line"/>
      <point x="115" y="700" type="line"/>
    </contour>
  </outline>
</glyph>
<glyph name="asciicircum" format="1">
  <advance width="410"/>
  <unicode hex="005E"/>
  <outline>
    <contour>
      <point x="254" y="660" type="line"/>
      <point x="352" y="479" type="line"/>
      <point x="336" y="479" type="line"/>
      <point x="314" y="517"/>
      <point x="273" y="595"/>
      <point x="251" y="633" type="qcurve"/>
      <point x="128" y="479" type="line"/>
      <point x="112" y="479" type="line"/>
    </contour>
  </outline>
</glyph>
<glyph name="underscore" format="1">
  <advance width="547"/>
  <unicode hex="005F"/>
  <outline>
    <contour>
      <point x="443" y="0" type="line"/>
      <point x="43" y="0" type="line"/>
      <point x="45" y="14" type="line"/>
      <point x="445" y="14" type="line"/>
    </contour>
  </outline>
</glyph>
<glyph name="grave" format="1">
  <advance width="200"/>
  <unicode hex="0060"/>
  <outline>
    <contour>
      <point x="77" y="612" type="line"/>
      <point x="151" y="479" type="line"/>
      <point x="135" y="479" type="line"/>
      <point x="61" y="612" type="line"/>
    </contour>
  </outline>
</glyph>
<glyph name="c" format="1">
  <advance width="397"/>
  <unicode hex="0063"/>
  <outline>
    <contour>
      <point x="370" y="340" type="qcurve"/>
      <point x="364" y="288" type="line"/>
      <point x="351" y="288" type="line"/>
      <point x="356" y="331" type="line"/>
      <point x="335" y="349"/>
      <point x="282" y="369"/>
      <point x="251" y="369" type="qcurve"/>
      <point x="210" y="369"/>
      <point x="137" y="337"/>
      <point x="80" y="283"/>
      <point x="47" y="210"/>
      <point x="47" y="170" type="qcurve"/>
      <point x="47" y="136"/>
      <point x="71" y="77"/>
      <point x="113" y="33"/>
      <point x="171" y="8"/>
      <point x="206" y="8" type="qcurve"/>
      <point x="238" y="8"/>
      <point x="298" y="29"/>
      <point x="324" y="47" type="qcurve"/>
      <point x="333" y="37" type="line"/>
      <point x="305" y="17"/>
      <point x="240" y="-6"/>
      <point x="205" y="-6" type="qcurve"/>
      <point x="167" y="-6"/>
      <point x="104" y="21"/>
      <point x="59" y="68"/>
      <point x="33" y="131"/>
      <point x="33" y="168" type="qcurve"/>
      <point x="33" y="212"/>
      <point x="69" y="290"/>
      <point x="129" y="349"/>
      <point x="208" y="383"/>
      <point x="252" y="383" type="qcurve"/>
      <point x="287" y="383"/>
      <point x="347" y="360"/>
    </contour>
  </outline>
</glyph>
<glyph name="i" format="1">
  <advance width="214"/>
  <unicode hex="0069"/>
  <outline>
    <contour>
      <point x="90" y="37" type="line"/>
      <point x="87" y="14" type="line"/>
      <point x="168" y="14" type="line"/>
      <point x="166" y="0" type="line"/>
      <point x="-9" y="0" type="line"/>
      <point x="-7" y="14" type="line"/>
      <point x="72" y="14" type="line"/>
      <point x="115" y="361" type="line"/>
      <point x="35" y="361" type="line"/>
      <point x="37" y="375" type="line"/>
      <point x="131" y="375" type="line"/>
      <point x="89" y="37" type="line"/>
    </contour>
    <contour>
      <point x="119" y="498" type="qcurve"/>
      <point x="119" y="507"/>
      <point x="133" y="520"/>
      <point x="142" y="520" type="qcurve"/>
      <point x="150" y="520"/>
      <point x="160" y="510"/>
      <point x="160" y="502" type="qcurve"/>
      <point x="160" y="493"/>
      <point x="146" y="480"/>
      <point x="137" y="480" type="qcurve"/>
      <point x="129" y="480"/>
      <point x="119" y="490"/>
    </contour>
  </outline>
</glyph>
<glyph name="l" format="1">
  <advance width="206"/>
  <unicode hex="006C"/>
  <outline>
    <contour>
      <point x="82" y="37" type="line"/>
      <point x="79" y="14" type="line"/>
      <point x="160" y="14" type="line"/>
      <point x="158" y="0" type="line"/>
      <point x="-17" y="0" type="line"/>
      <point x="-15" y="14" type="line"/>
      <point x="64" y="14" type="line"/>
      <point x="153" y="736" type="line"/>
      <point x="73" y="736" type="line"/>
      <point x="75" y="750" type="line"/>
      <point x="169" y="750" type="line"/>
      <point x="81" y="37" type="line"/>
    </contour>
  </outline>
</glyph>
<glyph name="t" format="1">
  <advance width="240"/>
  <unicode hex="0074"/>
  <outline>
    <contour>
      <point x="131" y="539" type="line"/>
      <point x="145" y="539" type="line"/>
      <point x="124" y="367" type="line"/>
      <point x="251" y="367" type="line"/>
      <point x="249" y="353" type="line"/>
      <point x="122" y="353" type="line"/>
      <point x="80" y="14" type="line"/>
      <point x="171" y="14" type="line"/>
      <point x="170" y="0" type="line"/>
      <point x="65" y="0" type="line"/>
      <point x="69" y="37" type="line"/>
      <point x="108" y="353" type="line"/>
      <point x="19" y="353" type="line"/>
      <point x="21" y="367" type="line"/>
      <point x="110" y="367" type="line"/>
    </contour>
  </outline>
</glyph>
<glyph name="v" format="1">
  <advance width="459"/>
  <unicode hex="0076"/>
  <outline>
    <contour>
      <point x="16" y="375" type="line"/>
      <point x="154" y="375" type="line"/>
      <point x="152" y="361" type="line"/>
      <point x="84" y="361" type="line"/>
      <point x="198" y="8" type="line"/>
      <point x="398" y="361" type="line"/>
      <point x="344" y="361" type="line"/>
      <point x="346" y="375" type="line"/>
      <point x="465" y="375" type="line"/>
      <point x="463" y="361" type="line"/>
      <point x="413" y="361" type="line"/>
      <point x="194" y="-23" type="line"/>
      <point x="69" y="361" type="line"/>
      <point x="14" y="361" type="line"/>
    </contour>
  </outline>
</glyph>
<glyph name="x" format="1">
  <advance width="425"/>
  <unicode hex="0078"/>
  <outline>
    <contour>
      <point x="33" y="374" type="line"/>
      <point x="72" y="374" type="line"/>
      <point x="72" y="375" type="line"/>
      <point x="90" y="375" type="line"/>
      <point x="90" y="374" type="line"/>
      <point x="171" y="374" type="line"/>
      <point x="169" y="360" type="line"/>
      <point x="99" y="360" type="line"/>
      <point x="124" y="319"/>
      <point x="173" y="239"/>
      <point x="197" y="198" type="qcurve"/>
      <point x="344" y="372" type="line"/>
      <point x="344" y="374" type="line"/>
      <point x="412" y="374" type="line"/>
      <point x="410" y="360" type="line"/>
      <point x="350" y="360" type="line"/>
      <point x="204" y="186" type="line"/>
      <point x="309" y="14" type="line"/>
      <point x="374" y="14" type="line"/>
      <point x="372" y="0" type="line"/>
      <point x="219" y="0" type="line"/>
      <point x="221" y="14" type="line"/>
      <point x="293" y="14" type="line"/>
      <point x="194" y="175" type="line"/>
      <point x="48" y="0" type="line"/>
      <point x="-10" y="0" type="line"/>
      <point x="-8" y="14" type="line"/>
      <point x="42" y="14" type="line"/>
      <point x="187" y="187" type="line"/>
      <point x="81" y="360" type="line"/>
      <point x="31" y="360" type="line"/>
    </contour>
  </outline>
</glyph>
<glyph name="braceright" format="1">
  <advance width="268"/>
  <unicode hex="007D"/>
  <outline>
    <contour>
      <point x="238" y="311" type="qcurve"/>
      <point x="235" y="287" type="line"/>
      <point x="203" y="285"/>
      <point x="166" y="244"/>
      <point x="145" y="189"/>
      <point x="137" y="133"/>
      <point x="135" y="116" type="qcurve"/>
      <point x="117" y="-30" type="line"/>
      <point x="111" y="-76"/>
      <point x="91" y="-125"/>
      <point x="64" y="-146"/>
      <point x="33" y="-148"/>
      <point x="17" y="-148" type="qcurve"/>
      <point x="-20" y="-148" type="line"/>
      <point x="-18" y="-134" type="line"/>
      <point x="39" y="-134" type="line"/>
      <point x="70" y="-134"/>
      <point x="96" y="-82"/>
      <point x="104" y="-22" type="qcurve"/>
      <point x="127" y="165" type="line"/>
      <point x="131" y="199"/>
      <point x="150" y="245"/>
      <point x="174" y="276"/>
      <point x="200" y="294"/>
      <point x="210" y="299" type="qcurve"/>
      <point x="198" y="306"/>
      <point x="176" y="326"/>
      <point x="163" y="363"/>
      <point x="159" y="423"/>
      <point x="165" y="470" type="qcurve"/>
      <point x="183" y="620" type="line"/>
      <point x="191" y="680"/>
      <point x="176" y="732"/>
      <point x="145" y="732" type="qcurve"/>
      <point x="88" y="732" type="line"/>
      <point x="90" y="746" type="line"/>
      <point x="127" y="746" type="line"/>
      <point x="143" y="746"/>
      <point x="174" y="743"/>
      <point x="195" y="722"/>
      <point x="204" y="674"/>
      <point x="198" y="628" type="qcurve"/>
      <point x="180" y="482" type="line"/>
      <point x="178" y="465"/>
      <point x="172" y="408"/>
      <point x="179" y="353"/>
      <point x="207" y="312"/>
    </contour>
  </outline>
</glyph>
<glyph name="cent" format="1">
  <advance width="428"/>
  <unicode hex="00A2"/>
  <outline>
    <contour>
      <point x="376" y="340" type="qcurve"/>
      <point x="370" y="288" type="line"/>
      <point x="357" y="288" type="line"/>
      <point x="362" y="331" type="line"/>
      <point x="341" y="349"/>
      <point x="288" y="369"/>
      <point x="257" y="369" type="qcurve"/>
      <point x="255" y="369" type="line"/>
      <point x="211" y="8" type="line"/>
      <point x="212" y="8" type="line"/>
      <point x="244" y="8"/>
      <point x="304" y="29"/>
      <point x="330" y="47" type="qcurve"/>
      <point x="339" y="37" type="line"/>
      <point x="311" y="17"/>
      <point x="246" y="-6"/>
      <point x="211" y="-6" type="qcurve"/>
      <point x="209" y="-6" type="line"/>
      <point x="202" y="-68" type="line"/>
      <point x="188" y="-68" type="line"/>
      <point x="195" y="-5" type="line"/>
      <point x="160" y="-2"/>
      <point x="103" y="26"/>
      <point x="62" y="72"/>
      <point x="39" y="133"/>
      <point x="39" y="168" type="qcurve"/>
      <point x="39" y="210"/>
      <point x="72" y="285"/>
      <point x="128" y="343"/>
      <point x="202" y="379"/>
      <point x="243" y="382" type="qcurve"/>
      <point x="250" y="438" type="line"/>
      <point x="264" y="438" type="line"/>
      <point x="257" y="383" type="line"/>
      <point x="258" y="383" type="line"/>
      <point x="293" y="383"/>
      <point x="353" y="360"/>
    </contour>
    <contour>
      <point x="53" y="170" type="qcurve"/>
      <point x="53" y="138"/>
      <point x="74" y="81"/>
      <point x="112" y="38"/>
      <point x="165" y="11"/>
      <point x="197" y="8" type="qcurve"/>
      <point x="241" y="368" type="line"/>
      <point x="203" y="365"/>
      <point x="135" y="331"/>
      <point x="83" y="278"/>
      <point x="53" y="209"/>
    </contour>
  </outline>
</glyph>
<glyph name="brokenbar" format="1">
  <advance width="222"/>
  <unicode hex="00A6"/>
  <outline>
    <contour>
      <point x="56" y="-233" type="line"/>
      <point x="42" y="-233" type="line"/>
      <point x="85" y="117" type="line"/>
      <point x="99" y="117" type="line"/>
    </contour>
    <contour>
      <point x="128" y="350" type="line"/>
      <point x="114" y="350" type="line"/>
      <point x="157" y="700" type="line"/>
      <point x="171" y="700" type="line"/>
    </contour>
  </outline>
</glyph>
<glyph name="dieresis" format="1">
  <advance width="370"/>
  <unicode hex="00A8"/>
  <outline>
    <contour>
      <point x="308" y="498" type="qcurve"/>
      <point x="308" y="507"/>
      <point x="322" y="520"/>
      <point x="331" y="520" type="qcurve"/>
      <point x="339" y="520"/>
      <point x="349" y="510"/>
      <point x="349" y="502" type="qcurve"/>
      <point x="349" y="493"/>
      <point x="335" y="480"/>
      <point x="326" y="480" type="qcurve"/>
      <point x="318" y="480"/>
      <point x="308" y="490"/>
    </contour>
    <contour>
      <point x="143" y="498" type="qcurve"/>
      <point x="143" y="507"/>
      <point x="157" y="520"/>
      <point x="166" y="520" type="qcurve"/>
      <point x="174" y="520"/>
      <point x="184" y="510"/>
      <point x="184" y="502" type="qcurve"/>
      <point x="184" y="493"/>
      <point x="170" y="480"/>
      <point x="161" y="480" type="qcurve"/>
      <point x="153" y="480"/>
      <point x="143" y="490"/>
    </contour>
  </outline>
</glyph>
<glyph name="registered" format="1">
  <advance width="663"/>
  <unicode hex="00AE"/>
  <outline>
    <contour>
      <point x="313" y="118" type="qcurve"/>
      <point x="263" y="118"/>
      <point x="180" y="152"/>
      <point x="120" y="212"/>
      <point x="87" y="295"/>
      <point x="87" y="344" type="qcurve"/>
      <point x="87" y="404"/>
      <point x="133" y="508"/>
      <point x="212" y="584"/>
      <point x="317" y="627"/>
      <point x="375" y="627" type="qcurve"/>
      <point x="425" y="627"/>
      <point x="508" y="593"/>
      <point x="568" y="533"/>
      <point x="601" y="449"/>
      <point x="601" y="400" type="qcurve"/>
      <point x="601" y="340"/>
      <point x="555" y="237"/>
      <point x="476" y="161"/>
      <point x="371" y="118"/>
    </contour>
    <contour>
      <point x="314" y="132" type="qcurve"/>
      <point x="368" y="132"/>
      <point x="466" y="173"/>
      <point x="542" y="244"/>
      <point x="587" y="341"/>
      <point x="587" y="397" type="qcurve"/>
      <point x="587" y="444"/>
      <point x="555" y="524"/>
      <point x="498" y="581"/>
      <point x="419" y="613"/>
      <point x="373" y="613" type="qcurve"/>
      <point x="320" y="613"/>
      <point x="222" y="572"/>
      <point x="146" y="501"/>
      <point x="101" y="403"/>
      <point x="101" y="346" type="qcurve"/>
      <point x="101" y="300"/>
      <point x="134" y="222"/>
      <point x="191" y="165"/>
      <point x="269" y="132"/>
    </contour>
    <contour>
      <point x="283" y="220" type="line"/>
      <point x="282" y="214" type="line"/>
      <point x="203" y="214" type="line"/>
      <point x="204" y="220" type="line"/>
      <point x="238" y="220" type="line"/>
      <point x="276" y="528" type="line"/>
      <point x="241" y="528" type="line"/>
      <point x="242" y="534" type="line"/>
      <point x="341" y="534" type="line"/>
      <point x="353" y="534"/>
      <point x="382" y="526"/>
      <point x="407" y="509"/>
      <point x="423" y="480"/>
      <point x="423" y="459" type="qcurve"/>
      <point x="423" y="430"/>
      <point x="388" y="377"/>
      <point x="353" y="366" type="qcurve"/>
      <point x="424" y="220" type="line"/>
      <point x="455" y="220" type="line"/>
      <point x="454" y="214" type="line"/>
      <point x="419" y="214" type="line"/>
      <point x="347" y="365" type="line"/>
      <point x="339" y="363"/>
      <point x="322" y="361"/>
      <point x="313" y="361" type="qcurve"/>
      <point x="262" y="361" type="line"/>
      <point x="244" y="220" type="line"/>
    </contour>
    <contour>
      <point x="263" y="367" type="line"/>
      <point x="315" y="367" type="line"/>
      <point x="344" y="367"/>
      <point x="383" y="387"/>
      <point x="406" y="416"/>
      <point x="416" y="447"/>
      <point x="416" y="459" type="qcurve"/>
      <point x="416" y="490"/>
      <point x="371" y="528"/>
      <point x="336" y="528" type="qcurve"/>
      <point x="283" y="528" type="line"/>
    </contour>
  </outline>
</glyph>
<glyph name="paragraph" format="1">
  <advance width="505"/>
  <unicode hex="00B6"/>
  <outline>
    <contour>
      <point x="185" y="0" type="line"/>
      <point x="171" y="0" type="line"/>
      <point x="223" y="423" type="line"/>
      <point x="191" y="423"/>
      <point x="139" y="446"/>
      <point x="100" y="485"/>
      <point x="79" y="538"/>
      <point x="79" y="569" type="qcurve"/>
      <point x="79" y="606"/>
      <point x="109" y="672"/>
      <point x="160" y="721"/>
      <point x="226" y="750"/>
      <point x="263" y="750" type="qcurve"/>
      <point x="440" y="750" type="line"/>
      <point x="348" y="0" type="line"/>
      <point x="334" y="0" type="line"/>
      <point x="425" y="736" type="line"/>
      <point x="276" y="736" type="line"/>
    </contour>
  </outline>
</glyph>
<glyph name="onesuperior" format="1">
  <advance width="184"/>
  <unicode hex="00B9"/>
  <outline>
    <contour>
      <point x="95" y="694" type="line"/>
      <point x="96" y="700" type="line"/>
      <point x="154" y="700" type="line"/>
      <point x="118" y="401" type="line"/>
      <point x="111" y="401" type="line"/>
      <point x="147" y="694" type="line"/>
    </contour>
  </outline>
</glyph>
<glyph name="ordmasculine" format="1">
  <advance width="401"/>
  <unicode hex="00BA"/>
  <outline>
    <contour>
      <point x="81" y="442" type="qcurve"/>
      <point x="84" y="471"/>
      <point x="112" y="522"/>
      <point x="155" y="561"/>
      <point x="209" y="583"/>
      <point x="238" y="583" type="qcurve"/>
      <point x="265" y="583"/>
      <point x="311" y="563"/>
      <point x="344" y="529"/>
      <point x="363" y="483"/>
      <point x="363" y="456" type="qcurve"/>
      <point x="363" y="424"/>
      <point x="337" y="368"/>
      <point x="292" y="326"/>
      <point x="234" y="302"/>
      <point x="203" y="302" type="qcurve"/>
      <point x="174" y="302"/>
      <point x="125" y="324"/>
      <point x="92" y="362"/>
      <point x="77" y="413"/>
    </contour>
    <contour>
      <point x="91" y="442" type="qcurve"/>
      <point x="88" y="415"/>
      <point x="102" y="367"/>
      <point x="133" y="332"/>
      <point x="178" y="312"/>
      <point x="205" y="312" type="qcurve"/>
      <point x="234" y="312"/>
      <point x="287" y="335"/>
      <point x="328" y="374"/>
      <point x="352" y="426"/>
      <point x="352" y="455" type="qcurve"/>
      <point x="352" y="479"/>
      <point x="335" y="522"/>
      <point x="304" y="554"/>
      <point x="261" y="572"/>
      <point x="236" y="572" type="qcurve"/>
      <point x="209" y="572"/>
      <point x="159" y="552"/>
      <point x="120" y="516"/>
      <point x="94" y="469"/>
    </contour>
  </outline>
</glyph>
<glyph name="AE" format="1">
  <advance width="685"/>
  <unicode hex="00C6"/>
  <outline>
    <contour>
      <point x="315" y="0" type="line"/>
      <point x="354" y="318" type="line"/>
      <point x="217" y="318" type="line"/>
      <point x="60" y="14" type="line"/>
      <point x="147" y="14" type="line"/>
      <point x="145" y="0" type="line"/>
      <point x="-29" y="0" type="line"/>
      <point x="-27" y="14" type="line"/>
      <point x="45" y="14" type="line"/>
      <point x="401" y="700" type="line"/>
      <point x="658" y="700" type="line"/>
      <point x="658" y="701" type="line"/>
      <point x="672" y="701" type="line"/>
      <point x="672" y="700" type="line"/>
      <point x="670" y="686" type="line"/>
      <point x="661" y="612" type="line"/>
      <point x="647" y="612" type="line"/>
      <point x="656" y="686" type="line"/>
      <point x="413" y="686" type="line"/>
      <point x="373" y="360" type="line"/>
      <point x="591" y="360" type="line"/>
      <point x="589" y="346" type="line"/>
      <point x="371" y="346" type="line"/>
      <point x="369" y="332" type="line"/>
      <point x="386" y="332" type="line"/>
      <point x="375" y="318" type="line"/>
      <point x="368" y="318" type="line"/>
      <point x="331" y="14" type="line"/>
      <point x="587" y="14" type="line"/>
      <point x="597" y="89" type="line"/>
      <point x="611" y="89" type="line"/>
      <point x="601" y="14" type="line"/>
      <point x="602" y="14" type="line"/>
      <point x="600" y="0" type="line"/>
    </contour>
    <contour>
      <point x="355" y="332" type="line"/>
      <point x="396" y="664" type="line"/>
      <point x="224" y="332" type="line"/>
    </contour>
  </outline>
</glyph>
<glyph name="Edieresis" format="1">
  <advance width="623"/>
  <unicode hex="00CB"/>
  <outline>
    <contour>
      <point x="582" y="612" type="line"/>
      <point x="591" y="686" type="line"/>
      <point x="204" y="686" type="line"/>
      <point x="164" y="360" type="line"/>
      <point x="526" y="360" type="line"/>
      <point x="524" y="346" type="line"/>
      <point x="162" y="346" type="line"/>
      <point x="122" y="14" type="line"/>
      <point x="522" y="14" type="line"/>
      <point x="532" y="89" type="line"/>
      <point x="546" y="89" type="line"/>
      <point x="536" y="14" type="line"/>
      <point x="537" y="14" type="line"/>
      <point x="535" y="0" type="line"/>
      <point x="30" y="0" type="line"/>
      <point x="32" y="14" type="line"/>
      <point x="107" y="14" type="line"/>
      <point x="190" y="686" type="line"/>
      <point x="114" y="686" type="line"/>
      <point x="116" y="700" type="line"/>
      <point x="593" y="700" type="line"/>
      <point x="593" y="701" type="line"/>
      <point x="607" y="701" type="line"/>
      <point x="607" y="700" type="line"/>
      <point x="605" y="686" type="line"/>
      <point x="596" y="612" type="line"/>
    </contour>
    <contour>
      <point x="311" y="753" type="qcurve"/>
      <point x="311" y="762"/>
      <point x="325" y="775"/>
      <point x="334" y="775" type="qcurve"/>
      <point x="342" y="775"/>
      <point x="352" y="765"/>
      <point x="352" y="757" type="qcurve"/>
      <point x="352" y="748"/>
      <point x="338" y="735"/>
      <point x="329" y="735" type="qcurve"/>
      <point x="321" y="735"/>
      <point x="311" y="745"/>
    </contour>
    <contour>
      <point x="476" y="753" type="qcurve"/>
      <point x="476" y="762"/>
      <point x="490" y="775"/>
      <point x="499" y="775" type="qcurve"/>
      <point x="507" y="775"/>
      <point x="517" y="765"/>
      <point x="517" y="757" type="qcurve"/>
      <point x="517" y="748"/>
      <point x="503" y="735"/>
      <point x="494" y="735" type="qcurve"/>
      <point x="486" y="735"/>
      <point x="476" y="745"/>
    </contour>
  </outline>
</glyph>
<glyph name="Igrave" format="1">
  <advance width="293"/>
  <unicode hex="00CC"/>
  <outline>
    <contour>
      <point x="290" y="700" type="line"/>
      <point x="288" y="686" type="line"/>
      <point x="205" y="686" type="line"/>
      <point x="122" y="14" type="line"/>
      <point x="206" y="14" type="line"/>
      <point x="204" y="0" type="line"/>
      <point x="30" y="0" type="line"/>
      <point x="32" y="14" type="line"/>
      <point x="108" y="14" type="line"/>
      <point x="191" y="686" type="line"/>
      <point x="114" y="686" type="line"/>
      <point x="116" y="700" type="line"/>
    </contour>
    <contour>
      <point x="195" y="885" type="line"/>
      <point x="269" y="752" type="line"/>
      <point x="253" y="752" type="line"/>
      <point x="179" y="885" type="line"/>
    </contour>
  </outline>
</glyph>
<glyph name="Odieresis" format="1">
  <advance width="837"/>
  <unicode hex="00D6"/>
  <outline>
    <contour>
      <point x="70" y="349" type="qcurve"/>
      <point x="79" y="423"/>
      <point x="151" y="554"/>
      <point x="260" y="651"/>
      <point x="397" y="708"/>
      <point x="471" y="708" type="qcurve"/>
      <point x="540" y="708"/>
      <point x="656" y="658"/>
      <point x="741" y="570"/>
      <point x="789" y="452"/>
      <point x="789" y="385" type="qcurve"/>
      <point x="789" y="305"/>
      <point x="722" y="162"/>
      <point x="610" y="55"/>
      <point x="463" y="-8"/>
      <point x="383" y="-8" type="qcurve"/>
      <point x="309" y="-8"/>
      <point x="186" y="48"/>
      <point x="101" y="145"/>
      <point x="61" y="275"/>
    </contour>
    <contour>
      <point x="84" y="348" type="qcurve"/>
      <point x="75" y="277"/>
      <point x="114" y="153"/>
      <point x="195" y="60"/>
      <point x="312" y="6"/>
      <point x="382" y="6" type="qcurve"/>
      <point x="458" y="6"/>
      <point x="600" y="66"/>
      <point x="709" y="169"/>
      <point x="774" y="306"/>
      <point x="774" y="383" type="qcurve"/>
      <point x="774" y="447"/>
      <point x="728" y="561"/>
      <point x="646" y="645"/>
      <point x="535" y="694"/>
      <point x="469" y="694" type="qcurve"/>
      <point x="398" y="694"/>
      <point x="267" y="639"/>
      <point x="162" y="545"/>
      <point x="93" y="419"/>
    </contour>
    <contour>
      <point x="542" y="762" type="qcurve"/>
      <point x="542" y="771"/>
      <point x="556" y="784"/>
      <point x="565" y="784" type="qcurve"/>
      <point x="573" y="784"/>
      <point x="583" y="774"/>
      <point x="583" y="766" type="qcurve"/>
      <point x="583" y="757"/>
      <point x="569" y="744"/>
      <point x="560" y="744" type="qcurve"/>
      <point x="552" y="744"/>
      <point x="542" y="754"/>
    </contour>
    <contour>
      <point x="377" y="762" type="qcurve"/>
      <point x="377" y="771"/>
      <point x="391" y="784"/>
      <point x="400" y="784" type="qcurve"/>
      <point x="408" y="784"/>
      <point x="418" y="774"/>
      <point x="418" y="766" type="qcurve"/>
      <point x="418" y="757"/>
      <point x="404" y="744"/>
      <point x="395" y="744" type="qcurve"/>
      <point x="387" y="744"/>
      <point x="377" y="754"/>
    </contour>
  </outline>
</glyph>
<glyph name="multiply" format="1">
  <advance width="424"/>
  <unicode hex="00D7"/>
  <outline>
    <contour>
      <point x="302" y="0" type="line"/>
      <point x="194" y="123" type="line"/>
      <point x="57" y="0" type="line"/>
      <point x="48" y="10" type="line"/>
      <point x="185" y="133" type="line"/>
      <point x="79" y="254" type="line"/>
      <point x="90" y="264" type="line"/>
      <point x="196" y="143" type="line"/>
      <point x="334" y="265" type="line"/>
      <point x="343" y="255" type="line"/>
      <point x="205" y="133" type="line"/>
      <point x="313" y="10" type="line"/>
    </contour>
  </outline>
</glyph>
<glyph name="Ucircumflex" format="1">
  <advance width="697"/>
  <unicode hex="00DB"/>
  <outline>
    <contour>
      <point x="275" y="700" type="line"/>
      <point x="273" y="686" type="line"/>
      <point x="190" y="686" type="line"/>
      <point x="134" y="229" type="line"/>
      <point x="127" y="175"/>
      <point x="148" y="92"/>
      <point x="198" y="35"/>
      <point x="272" y="6"/>
      <point x="318" y="6" type="qcurve"/>
      <point x="363" y="6"/>
      <point x="444" y="35"/>
      <point x="507" y="92"/>
      <point x="549" y="175"/>
      <point x="556" y="229" type="qcurve"/>
      <point x="612" y="686" type="line"/>
      <point x="614" y="700" type="line"/>
      <point x="707" y="700" type="line"/>
      <point x="705" y="686" type="line"/>
      <point x="626" y="686" type="line"/>
      <point x="570" y="226" type="line"/>
      <point x="563" y="169"/>
      <point x="517" y="81"/>
      <point x="450" y="22"/>
      <point x="364" y="-8"/>
      <point x="316" y="-8" type="qcurve"/>
      <point x="268" y="-8"/>
      <point x="189" y="22"/>
      <point x="136" y="81"/>
      <point x="113" y="169"/>
      <point x="120" y="226" type="qcurve"/>
      <point x="176" y="686" type="line"/>
      <point x="99" y="686" type="line"/>
      <point x="101" y="700" type="line"/>
    </contour>
    <contour>
      <point x="432" y="917" type="line"/>
      <point x="530" y="736" type="line"/>
      <point x="514" y="736" type="line"/>
      <point x="492" y="774"/>
      <point x="451" y="852"/>
      <point x="429" y="890" type="qcurve"/>
      <point x="306" y="736" type="line"/>
      <point x="290" y="736" type="line"/>
    </contour>
  </outline>
</glyph>
<glyph name="ae" format="1">
  <advance width="617"/>
  <unicode hex="00E6"/>
  <outline>
    <contour>
      <point x="529" y="46" type="line"/>
      <point x="500" y="22"/>
      <point x="427" y="-6"/>
      <point x="388" y="-6" type="qcurve"/>
      <point x="321" y="-6"/>
      <point x="274" y="35" type="qcurve"/>
      <point x="252" y="15"/>
      <point x="185" y="-6"/>
      <point x="145" y="-6" type="qcurve"/>
      <point x="81" y="-6"/>
      <point x="19" y="44"/>
      <point x="19" y="85" type="qcurve"/>
      <point x="19" y="115"/>
      <point x="44" y="157"/>
      <point x="83" y="183"/>
      <point x="130" y="195"/>
      <point x="151" y="195" type="qcurve"/>
      <point x="218" y="195" type="line"/>
      <point x="224" y="237"/>
      <point x="268" y="308"/>
      <point x="300" y="334" type="qcurve"/>
      <point x="286" y="351"/>
      <point x="236" y="367"/>
      <point x="195" y="367" type="qcurve"/>
      <point x="146" y="367"/>
      <point x="92" y="347"/>
      <point x="69" y="332" type="qcurve"/>
      <point x="63" y="346" type="line"/>
      <point x="85" y="362"/>
      <point x="154" y="383"/>
      <point x="202" y="383" type="qcurve"/>
      <point x="245" y="383"/>
      <point x="299" y="363"/>
      <point x="313" y="345" type="qcurve"/>
      <point x="339" y="363"/>
      <point x="402" y="384"/>
      <point x="436" y="384" type="qcurve"/>
      <point x="498" y="384"/>
      <point x="575" y="313"/>
      <point x="590" y="259" type="qcurve"/>
      <point x="551" y="244"/>
      <point x="460" y="209"/>
      <point x="367" y="173"/>
      <point x="276" y="138"/>
      <point x="236" y="122" type="qcurve"/>
      <point x="250" y="71"/>
      <point x="332" y="8"/>
      <point x="390" y="8" type="qcurve"/>
      <point x="426" y="8"/>
      <point x="492" y="33"/>
      <point x="519" y="56" type="qcurve"/>
    </contour>
    <contour>
      <point x="572" y="266" type="qcurve"/>
      <point x="556" y="311"/>
      <point x="488" y="369"/>
      <point x="434" y="369" type="qcurve"/>
      <point x="393" y="369"/>
      <point x="320" y="337"/>
      <point x="263" y="282"/>
      <point x="230" y="208"/>
      <point x="230" y="166" type="qcurve"/>
      <point x="230" y="159"/>
      <point x="231" y="142"/>
      <point x="233" y="135" type="qcurve"/>
      <point x="272" y="150"/>
      <point x="358" y="184"/>
      <point x="446" y="217"/>
      <point x="533" y="251"/>
    </contour>
    <contour>
      <point x="36" y="88" type="qcurve"/>
      <point x="36" y="48"/>
      <point x="101" y="8"/>
      <point x="152" y="8" type="qcurve"/>
      <point x="222" y="8"/>
      <point x="265" y="45" type="qcurve"/>
      <point x="242" y="68"/>
      <point x="217" y="131"/>
      <point x="217" y="168" type="qcurve"/>
      <point x="217" y="181" type="line"/>
      <point x="156" y="181" type="line"/>
      <point x="120" y="181"/>
      <point x="74" y="163"/>
      <point x="47" y="135"/>
      <point x="36" y="103"/>
    </contour>
  </outline>
</glyph>
<glyph name="icircumflex" format="1">
  <advance width="214"/>
  <unicode hex="00EE"/>
  <outline>
    <contour>
      <point x="90" y="37" type="line"/>
      <point x="87" y="14" type="line"/>
      <point x="168" y="14" type="line"/>
      <point x="166" y="0" type="line"/>
      <point x="-9" y="0" type="line"/>
      <point x="-7" y="14" type="line"/>
      <point x="72" y="14" type="line"/>
      <point x="115" y="361" type="line"/>
      <point x="35" y="361" type="line"/>
      <point x="37" y="375" type="line"/>
      <point x="131" y="375" type="line"/>
      <point x="89" y="37" type="line"/>
    </contour>
    <contour>
      <point x="151" y="600" type="line"/>
      <point x="256" y="479" type="line"/>
      <point x="240" y="479" type="line"/>
      <point x="148" y="573" type="line"/>
      <point x="32" y="479" type="line"/>
      <point x="16" y="479" type="line"/>
    </contour>
  </outline>
</glyph>
<glyph name="eth" format="1">
  <advance width="491"/>
  <unicode hex="00F0"/>
  <outline>
    <contour>
      <point x="34" y="188" type="qcurve"/>
      <point x="39" y="228"/>
      <point x="78" y="300"/>
      <point x="137" y="353"/>
      <point x="211" y="384"/>
      <point x="252" y="384" type="qcurve"/>
      <point x="305" y="384"/>
      <point x="386" y="331"/>
      <point x="407" y="289" type="qcurve"/>
      <point x="407" y="295" type="line"/>
      <point x="404" y="323"/>
      <point x="386" y="396"/>
      <point x="353" y="480"/>
      <point x="303" y="572"/>
      <point x="267" y="620" type="qcurve"/>
      <point x="182" y="539" type="line"/>
      <point x="175" y="547" type="line"/>
      <point x="261" y="629" type="line"/>
      <point x="242" y="652"/>
      <point x="201" y="697"/>
      <point x="178" y="717" type="qcurve"/>
      <point x="185" y="726" type="line"/>
      <point x="208" y="707"/>
      <point x="250" y="663"/>
      <point x="270" y="637" type="qcurve"/>
      <point x="290" y="657"/>
      <point x="330" y="694"/>
      <point x="350" y="714" type="qcurve"/>
      <point x="352" y="712"/>
      <point x="355" y="709"/>
      <point x="357" y="707" type="qcurve"/>
      <point x="276" y="629" type="line"/>
      <point x="308" y="585"/>
      <point x="364" y="486"/>
      <point x="405" y="381"/>
      <point x="429" y="275"/>
      <point x="429" y="225" type="qcurve"/>
      <point x="429" y="193"/>
      <point x="425" y="172"/>
      <point x="423" y="177" type="qcurve"/>
      <point x="417" y="138"/>
      <point x="377" y="71"/>
      <point x="317" y="22"/>
      <point x="243" y="-6"/>
      <point x="204" y="-6" type="qcurve"/>
      <point x="163" y="-6"/>
      <point x="97" y="24"/>
      <point x="51" y="77"/>
      <point x="29" y="147"/>
    </contour>
    <contour>
      <point x="48" y="188" type="qcurve"/>
      <point x="43" y="150"/>
      <point x="64" y="85"/>
      <point x="106" y="36"/>
      <point x="168" y="8"/>
      <point x="206" y="8" type="qcurve"/>
      <point x="246" y="8"/>
      <point x="320" y="39"/>
      <point x="377" y="93"/>
      <point x="410" y="165"/>
      <point x="410" y="206" type="qcurve"/>
      <point x="410" y="240"/>
      <point x="386" y="300"/>
      <point x="343" y="344"/>
      <point x="284" y="369"/>
      <point x="250" y="369" type="qcurve"/>
      <point x="212" y="369"/>
      <point x="143" y="341"/>
      <point x="89" y="291"/>
      <point x="52" y="225"/>
    </contour>
  </outline>
</glyph>
<glyph name="ucircumflex" format="1">
  <advance width="477"/>
  <unicode hex="00FB"/>
  <outline>
    <contour>
      <point x="376" y="338" type="line"/>
      <point x="379" y="361" type="line"/>
      <point x="298" y="361" type="line"/>
      <point x="300" y="375" type="line"/>
      <point x="395" y="375" type="line"/>
      <point x="350" y="14" type="line"/>
      <point x="430" y="14" type="line"/>
      <point x="429" y="0" type="line"/>
      <point x="339" y="0" type="line"/>
      <point x="350" y="98" type="line"/>
      <point x="324" y="50"/>
      <point x="228" y="-7"/>
      <point x="172" y="-7" type="qcurve"/>
      <point x="119" y="-7"/>
      <point x="65" y="55"/>
      <point x="70" y="105" type="qcurve"/>
      <point x="99" y="342" type="line"/>
      <point x="101" y="361" type="line"/>
      <point x="21" y="361" type="line"/>
      <point x="23" y="375" type="line"/>
      <point x="117" y="375" type="line"/>
      <point x="112" y="333" type="line"/>
      <point x="83" y="98" type="line"/>
      <point x="80" y="62"/>
      <point x="123" y="9"/>
      <point x="167" y="7" type="qcurve"/>
      <point x="201" y="7"/>
      <point x="265" y="29"/>
      <point x="316" y="68"/>
      <point x="350" y="123"/>
      <point x="354" y="155" type="qcurve"/>
    </contour>
    <contour>
      <point x="273" y="600" type="line"/>
      <point x="378" y="479" type="line"/>
      <point x="362" y="479" type="line"/>
      <point x="270" y="573" type="line"/>
      <point x="154" y="479" type="line"/>
      <point x="138" y="479" type="line"/>
    </contour>
  </outline>
</glyph>
<glyph name="udieresis" format="1">
  <advance width="477"/>
  <unicode hex="00FC"/>
  <outline>
    <contour>
      <point x="376" y="338" type="line"/>
      <point x="379" y="361" type="line"/>
      <point x="298" y="361" type="line"/>
      <point x="300" y="375" type="line"/>
      <point x="395" y="375" type="line"/>
      <point x="350" y="14" type="line"/>
      <point x="430" y="14" type="line"/>
      <point x="429" y="0" type="line"/>
      <point x="339" y="0" type="line"/>
      <point x="350" y="98" type="line"/>
      <point x="324" y="50"/>
      <point x="228" y="-7"/>
      <point x="172" y="-7" type="qcurve"/>
      <point x="119" y="-7"/>
      <point x="65" y="55"/>
      <point x="70" y="105" type="qcurve"/>
      <point x="99" y="342" type="line"/>
      <point x="101" y="361" type="line"/>
      <point x="21" y="361" type="line"/>
      <point x="23" y="375" type="line"/>
      <point x="117" y="375" type="line"/>
      <point x="112" y="333" type="line"/>
      <point x="83" y="98" type="line"/>
      <point x="80" y="62"/>
      <point x="123" y="9"/>
      <point x="167" y="7" type="qcurve"/>
      <point x="201" y="7"/>
      <point x="265" y="29"/>
      <point x="316" y="68"/>
      <point x="350" y="123"/>
      <point x="354" y="155" type="qcurve"/>
    </contour>
    <contour>
      <point x="326" y="498" type="qcurve"/>
      <point x="326" y="507"/>
      <point x="340" y="520"/>
      <point x="349" y="520" type="qcurve"/>
      <point x="357" y="520"/>
      <point x="367" y="510"/>
      <point x="367" y="502" type="qcurve"/>
      <point x="367" y="493"/>
      <point x="353" y="480"/>
      <point x="344" y="480" type="qcurve"/>
      <point x="336" y="480"/>
      <point x="326" y="490"/>
    </contour>
    <contour>
      <point x="161" y="498" type="qcurve"/>
      <point x="161" y="507"/>
      <point x="175" y="520"/>
      <point x="184" y="520" type="qcurve"/>
      <point x="192" y="520"/>
      <point x="202" y="510"/>
      <point x="202" y="502" type="qcurve"/>
      <point x="202" y="493"/>
      <point x="188" y="480"/>
      <point x="179" y="480" type="qcurve"/>
      <point x="171" y="480"/>
      <point x="161" y="490"/>
    </contour>
  </outline>
</glyph>
<glyph name="Abreve" format="1">
  <advance width="718"/>
  <unicode hex="0102"/>
  <outline>
    <contour>
      <point x="-29" y="14" type="line"/>
      <point x="-31" y="0" type="line"/>
      <point x="143" y="0" type="line"/>
      <point x="145" y="14" type="line"/>
      <point x="58" y="14" type="line"/>
      <point x="215" y="318" type="line"/>
      <point x="515" y="318" type="line"/>
      <point x="597" y="14" type="line"/>
      <point x="515" y="14" type="line"/>
      <point x="513" y="0" type="line"/>
      <point x="687" y="0" type="line"/>
      <point x="689" y="14" type="line"/>
      <point x="612" y="14" type="line"/>
      <point x="416" y="732" type="line"/>
      <point x="43" y="14" type="line"/>
    </contour>
    <contour>
      <point x="400" y="675" type="line"/>
      <point x="401" y="680"/>
      <point x="404" y="684" type="qcurve"/>
      <point x="406" y="688"/>
      <point x="410" y="697"/>
      <point x="412" y="700" type="qcurve"/>
      <point x="413" y="697"/>
      <point x="415" y="688"/>
      <point x="416" y="684" type="qcurve"/>
      <point x="417" y="680"/>
      <point x="418" y="675" type="qcurve"/>
      <point x="511" y="332" type="line"/>
      <point x="222" y="332" type="line"/>
    </contour>
    <contour>
      <point x="417" y="733" type="qcurve"/>
      <point x="384" y="733"/>
      <point x="328" y="757"/>
      <point x="289" y="799"/>
      <point x="270" y="857"/>
      <point x="273" y="890" type="qcurve"/>
      <point x="288" y="890" type="line"/>
      <point x="285" y="861"/>
      <point x="302" y="810"/>
      <point x="336" y="770"/>
      <point x="386" y="747"/>
      <point x="418" y="747" type="qcurve"/>
      <point x="450" y="747"/>
      <point x="506" y="770"/>
      <point x="549" y="810"/>
      <point x="577" y="861"/>
      <point x="581" y="890" type="qcurve"/>
      <point x="597" y="890" type="line"/>
      <point x="593" y="857"/>
      <point x="560" y="799"/>
      <point x="511" y="757"/>
      <point x="450" y="733"/>
    </contour>
  </outline>
</glyph>
<glyph name="Ccircumflex" format="1">
  <advance width="653"/>
  <unicode hex="0108"/>
  <outline>
    <contour>
      <point x="626" y="582" type="line"/>
      <point x="634" y="650" type="line"/>
      <point x="599" y="671"/>
      <point x="516" y="694"/>
      <point x="471" y="694" type="qcurve"/>
      <point x="394" y="694"/>
      <point x="254" y="633"/>
      <point x="146" y="528"/>
      <point x="82" y="388"/>
      <point x="82" y="308" type="qcurve"/>
      <point x="82" y="246"/>
      <point x="122" y="137"/>
      <point x="199" y="54"/>
      <point x="309" y="6"/>
      <point x="379" y="6" type="qcurve"/>
      <point x="431" y="6"/>
      <point x="523" y="31"/>
      <point x="565" y="54" type="qcurve"/>
      <point x="573" y="42" type="line"/>
      <point x="530" y="19"/>
      <point x="435" y="-8"/>
      <point x="381" y="-8" type="qcurve"/>
      <point x="308" y="-8"/>
      <point x="192" y="42"/>
      <point x="111" y="128"/>
      <point x="68" y="243"/>
      <point x="68" y="308" type="qcurve"/>
      <point x="68" y="391"/>
      <point x="135" y="537"/>
      <point x="246" y="645"/>
      <point x="392" y="708"/>
      <point x="472" y="708" type="qcurve"/>
      <point x="523" y="708"/>
      <point x="611" y="682"/>
      <point x="649" y="658" type="qcurve"/>
      <point x="640" y="582" type="line"/>
    </contour>
    <contour>
      <point x="489" y="856" type="line"/>
      <point x="594" y="735" type="line"/>
      <point x="578" y="735" type="line"/>
      <point x="486" y="829" type="line"/>
      <point x="370" y="735" type="line"/>
      <point x="354" y="735" type="line"/>
    </contour>
  </outline>
</glyph>
<glyph name="dcaron" format="1">
  <advance width="528"/>
  <unicode hex="010F"/>
  <outline>
    <contour>
      <point x="378" y="14" type="line"/>
      <point x="458" y="14" type="line"/>
      <point x="456" y="0" type="line"/>
      <point x="362" y="0" type="line"/>
      <point x="369" y="54" type="line"/>
      <point x="371" y="70"/>
      <point x="375" y="101"/>
      <point x="377" y="117" type="qcurve"/>
      <point x="363" y="90"/>
      <point x="322" y="45"/>
      <point x="270" y="12"/>
      <point x="211" y="-6"/>
      <point x="180" y="-6" type="qcurve"/>
      <point x="143" y="-6"/>
      <point x="80" y="21"/>
      <point x="35" y="68"/>
      <point x="9" y="131"/>
      <point x="9" y="168" type="qcurve"/>
      <point x="9" y="212"/>
      <point x="45" y="290"/>
      <point x="105" y="349"/>
      <point x="184" y="383"/>
      <point x="228" y="383" type="qcurve"/>
      <point x="290" y="383"/>
      <point x="379" y="314"/>
      <point x="394" y="260" type="qcurve"/>
      <point x="452" y="736" type="line"/>
      <point x="374" y="736" type="line"/>
      <point x="376" y="750" type="line"/>
      <point x="468" y="750" type="line"/>
      <point x="377" y="13" type="line"/>
    </contour>
    <contour>
      <point x="23" y="170" type="qcurve"/>
      <point x="23" y="136"/>
      <point x="47" y="77"/>
      <point x="89" y="33"/>
      <point x="147" y="8"/>
      <point x="182" y="8" type="qcurve"/>
      <point x="222" y="8"/>
      <point x="296" y="39"/>
      <point x="353" y="93"/>
      <point x="386" y="165"/>
      <point x="386" y="206" type="qcurve"/>
      <point x="386" y="240"/>
      <point x="362" y="300"/>
      <point x="319" y="344"/>
      <point x="260" y="369"/>
      <point x="226" y="369" type="qcurve"/>
      <point x="185" y="369"/>
      <point x="112" y="337"/>
      <point x="56" y="283"/>
      <point x="23" y="210"/>
    </contour>
    <contour>
      <point x="561" y="572" type="qcurve"/>
      <point x="560" y="577"/>
      <point x="559" y="585"/>
      <point x="557" y="590" type="qcurve"/>
      <point x="581" y="610"/>
      <point x="607" y="669"/>
      <point x="604" y="704" type="qcurve"/>
      <point x="624" y="711" type="line"/>
      <point x="628" y="671"/>
      <point x="594" y="598"/>
    </contour>
  </outline>
</glyph>
<glyph name="Emacron" format="1">
  <advance width="623"/>
  <unicode hex="0112"/>
  <outline>
    <contour>
      <point x="582" y="612" type="line"/>
      <point x="591" y="686" type="line"/>
      <point x="204" y="686" type="line"/>
      <point x="164" y="360" type="line"/>
      <point x="526" y="360" type="line"/>
      <point x="524" y="346" type="line"/>
      <point x="162" y="346" type="line"/>
      <point x="122" y="14" type="line"/>
      <point x="522" y="14" type="line"/>
      <point x="532" y="89" type="line"/>
      <point x="546" y="89" type="line"/>
      <point x="536" y="14" type="line"/>
      <point x="537" y="14" type="line"/>
      <point x="535" y="0" type="line"/>
      <point x="30" y="0" type="line"/>
      <point x="32" y="14" type="line"/>
      <point x="107" y="14" type="line"/>
      <point x="190" y="686" type="line"/>
      <point x="114" y="686" type="line"/>
      <point x="116" y="700" type="line"/>
      <point x="593" y="700" type="line"/>
      <point x="593" y="701" type="line"/>
      <point x="607" y="701" type="line"/>
      <point x="607" y="700" type="line"/>
      <point x="605" y="686" type="line"/>
      <point x="596" y="612" type="line"/>
    </contour>
    <contour>
      <point x="291" y="750" type="line"/>
      <point x="293" y="764" type="line"/>
      <point x="523" y="764" type="line"/>
      <point x="521" y="750" type="line"/>
    </contour>
  </outline>
</glyph>
<glyph name="Hbar" format="1">
  <advance width="778"/>
  <unicode hex="0126"/>
  <outline>
    <contour>
      <point x="295" y="700" type="line"/>
      <point x="293" y="686" type="line"/>
      <point x="210" y="686" type="line"/>
      <point x="188" y="506" type="line"/>
      <point x="652" y="506" type="line"/>
      <point x="674" y="686" type="line"/>
      <point x="591" y="686" type="line"/>
      <point x="593" y="700" type="line"/>
      <point x="767" y="700" type="line"/>
      <point x="765" y="686" type="line"/>
      <point x="688" y="686" type="line"/>
      <point x="666" y="506" type="line"/>
      <point x="746" y="506" type="line"/>
      <point x="744" y="492" type="line"/>
      <point x="664" y="492" type="line"/>
      <point x="605" y="14" type="line"/>
      <point x="683" y="14" type="line"/>
      <point x="681" y="0" type="line"/>
      <point x="507" y="0" type="line"/>
      <point x="509" y="14" type="line"/>
      <point x="591" y="14" type="line"/>
      <point x="632" y="346" type="line"/>
      <point x="168" y="346" type="line"/>
      <point x="127" y="14" type="line"/>
      <point x="211" y="14" type="line"/>
      <point x="209" y="0" type="line"/>
      <point x="35" y="0" type="line"/>
      <point x="37" y="14" type="line"/>
      <point x="113" y="14" type="line"/>
      <point x="172" y="492" type="line"/>
      <point x="94" y="492" type="line"/>
      <point x="96" y="506" type="line"/>
      <point x="174" y="506" type="line"/>
      <point x="196" y="686" type="line"/>
      <point x="119" y="686" type="line"/>
      <point x="121" y="700" type="line"/>
    </contour>
    <contour>
      <point x="634" y="360" type="line"/>
      <point x="650" y="492" type="line"/>
      <point x="186" y="492" type="line"/>
      <point x="170" y="360" type="line"/>
    </contour>
  </outline>
</glyph>
<glyph name="Itilde" format="1">
  <advance width="293"/>
  <unicode hex="0128"/>
  <outline>
    <contour>
      <point x="290" y="700" type="line"/>
      <point x="288" y="686" type="line"/>
      <point x="205" y="686" type="line"/>
      <point x="122" y="14" type="line"/>
      <point x="206" y="14" type="line"/>
      <point x="204" y="0" type="line"/>
      <point x="30" y="0" type="line"/>
      <point x="32" y="14" type="line"/>
      <point x="108" y="14" type="line"/>
      <point x="191" y="686" type="line"/>
      <point x="114" y="686" type="line"/>
      <point x="116" y="700" type="line"/>
    </contour>
    <contour>
      <point x="201" y="776" type="qcurve"/>
      <point x="187" y="794"/>
      <point x="165" y="806"/>
      <point x="151" y="806" type="qcurve"/>
      <point x="143" y="806"/>
      <point x="121" y="801"/>
      <point x="100" y="789"/>
      <point x="82" y="768"/>
      <point x="78" y="751" type="qcurve"/>
      <point x="65" y="753" type="line"/>
      <point x="72" y="790"/>
      <point x="127" y="820"/>
      <point x="155" y="820" type="qcurve"/>
      <point x="175" y="820"/>
      <point x="205" y="799"/>
      <point x="219" y="782" type="qcurve"/>
      <point x="233" y="764"/>
      <point x="256" y="752"/>
      <point x="270" y="752" type="qcurve"/>
      <point x="278" y="752"/>
      <point x="300" y="757"/>
      <point x="321" y="769"/>
      <point x="339" y="790"/>
      <point x="343" y="807" type="qcurve"/>
      <point x="355" y="805" type="line"/>
      <point x="348" y="768"/>
      <point x="293" y="738"/>
      <point x="265" y="738" type="qcurve"/>
      <point x="245" y="738"/>
      <point x="215" y="759"/>
    </contour>
  </outline>
</glyph>
<glyph name="uni013B" format="1">
  <advance width="587"/>
  <unicode hex="013B"/>
  <outline>
    <contour>
      <point x="291" y="700" type="line"/>
      <point x="289" y="686" type="line"/>
      <point x="205" y="686" type="line"/>
      <point x="123" y="14" type="line"/>
      <point x="523" y="14" type="line"/>
      <point x="533" y="89" type="line"/>
      <point x="547" y="89" type="line"/>
      <point x="536" y="0" type="line"/>
      <point x="31" y="0" type="line"/>
      <point x="33" y="14" type="line"/>
      <point x="108" y="14" type="line"/>
      <point x="191" y="686" type="line"/>
      <point x="115" y="686" type="line"/>
      <point x="117" y="700" type="line"/>
    </contour>
    <contour>
      <point x="303" y="-21" type="line"/>
      <point x="289" y="-47"/>
      <point x="272" y="-78"/>
      <point x="256" y="-106"/>
      <point x="239" y="-137"/>
      <point x="225" y="-163" type="qcurve"/>
      <point x="211" y="-163" type="line"/>
      <point x="280" y="-21" type="line"/>
    </contour>
  </outline>
</glyph>
<glyph name="uni013C" format="1">
  <advance width="206"/>
  <unicode hex="013C"/>
  <outline>
    <contour>
      <point x="82" y="37" type="line"/>
      <point x="79" y="14" type="line"/>
      <point x="160" y="14" type="line"/>
      <point x="158" y="0" type="line"/>
      <point x="-17" y="0" type="line"/>
      <point x="-15" y="14" type="line"/>
      <point x="64" y="14" type="line"/>
      <point x="153" y="736" type="line"/>
      <point x="73" y="736" type="line"/>
      <point x="75" y="750" type="line"/>
      <point x="169" y="750" type="line"/>
      <point x="81" y="37" type="line"/>
    </contour>
    <contour>
      <point x="64" y="-21" type="line"/>
      <point x="50" y="-47"/>
      <point x="33" y="-78"/>
      <point x="17" y="-106"/>
      <point x="0" y="-137"/>
      <point x="-14" y="-163" type="qcurve"/>
      <point x="-28" y="-163" type="line"/>
      <point x="41" y="-21" type="line"/>
    </contour>
  </outline>
</glyph>
<glyph name="Lcaron" format="1">
  <advance width="586"/>
  <unicode hex="013D"/>
  <outline>
    <contour>
      <point x="290" y="700" type="line"/>
      <point x="288" y="686" type="line"/>
      <point x="204" y="686" type="line"/>
      <point x="122" y="14" type="line"/>
      <point x="522" y="14" type="line"/>
      <point x="532" y="89" type="line"/>
      <point x="546" y="89" type="line"/>
      <point x="535" y="0" type="line"/>
      <point x="30" y="0" type="line"/>
      <point x="32" y="14" type="line"/>
      <point x="107" y="14" type="line"/>
      <point x="190" y="686" type="line"/>
      <point x="114" y="686" type="line"/>
      <point x="116" y="700" type="line"/>
    </contour>
    <contour>
      <point x="286" y="572" type="qcurve"/>
      <point x="285" y="577"/>
      <point x="284" y="585"/>
      <point x="282" y="590" type="qcurve"/>
      <point x="306" y="610"/>
      <point x="332" y="669"/>
      <point x="329" y="704" type="qcurve"/>
      <point x="349" y="711" type="line"/>
      <point x="353" y="671"/>
      <point x="319" y="598"/>
    </contour>
  </outline>
</glyph>
<glyph name="lslash" format="1">
  <advance width="208"/>
  <unicode hex="0142"/>
  <outline>
    <contour>
      <point x="84" y="37" type="line"/>
      <point x="81" y="14" type="line"/>
      <point x="162" y="14" type="line"/>
      <point x="160" y="0" type="line"/>
      <point x="-15" y="0" type="line"/>
      <point x="-13" y="14" type="line"/>
      <point x="66" y="14" type="line"/>
      <point x="102" y="303" type="line"/>
      <point x="18" y="273" type="line"/>
      <point x="20" y="287" type="line"/>
      <point x="103" y="316" type="line"/>
      <point x="155" y="736" type="line"/>
      <point x="75" y="736" type="line"/>
      <point x="77" y="750" type="line"/>
      <point x="171" y="750" type="line"/>
      <point x="118" y="322" type="line"/>
      <point x="178" y="343" type="line"/>
      <point x="176" y="329" type="line"/>
      <point x="117" y="308" type="line"/>
      <point x="83" y="37" type="line"/>
    </contour>
  </outline>
</glyph>
<glyph name="uni0146" format="1">
  <advance width="485"/>
  <unicode hex="0146"/>
  <outline>
    <contour>
      <point x="367" y="42" type="line"/>
      <point x="364" y="14" type="line"/>
      <point x="444" y="14" type="line"/>
      <point x="442" y="0" type="line"/>
      <point x="269" y="0" type="line"/>
      <point x="271" y="14" type="line"/>
      <point x="349" y="14" type="line"/>
      <point x="353" y="42" type="line"/>
      <point x="382" y="277" type="line"/>
      <point x="385" y="313"/>
      <point x="342" y="366"/>
      <point x="298" y="368" type="qcurve"/>
      <point x="264" y="368"/>
      <point x="200" y="346"/>
      <point x="149" y="307"/>
      <point x="115" y="252"/>
      <point x="111" y="220" type="qcurve"/>
      <point x="88" y="37" type="line"/>
      <point x="89" y="37" type="line"/>
      <point x="86" y="14" type="line"/>
      <point x="167" y="14" type="line"/>
      <point x="165" y="0" type="line"/>
      <point x="-10" y="0" type="line"/>
      <point x="-8" y="14" type="line"/>
      <point x="71" y="14" type="line"/>
      <point x="114" y="361" type="line"/>
      <point x="34" y="361" type="line"/>
      <point x="36" y="375" type="line"/>
      <point x="125" y="375" type="line"/>
      <point x="115" y="277" type="line"/>
      <point x="141" y="324"/>
      <point x="236" y="382"/>
      <point x="293" y="382" type="qcurve"/>
      <point x="346" y="382"/>
      <point x="400" y="320"/>
      <point x="395" y="270" type="qcurve"/>
    </contour>
    <contour>
      <point x="229" y="-21" type="line"/>
      <point x="215" y="-47"/>
      <point x="198" y="-78"/>
      <point x="182" y="-106"/>
      <point x="165" y="-137"/>
      <point x="151" y="-163" type="qcurve"/>
      <point x="137" y="-163" type="line"/>
      <point x="206" y="-21" type="line"/>
    </contour>
  </outline>
</glyph>
<glyph name="OE" format="1">
  <advance width="915"/>
  <unicode hex="0152"/>
  <outline>
    <contour>
      <point x="873" y="612" type="line"/>
      <point x="882" y="686" type="line"/>
      <point x="558" y="686" type="line"/>
      <point x="518" y="360" type="line"/>
      <point x="817" y="360" type="line"/>
      <point x="815" y="346" type="line"/>
      <point x="516" y="346" type="line"/>
      <point x="476" y="14" type="line"/>
      <point x="813" y="14" type="line"/>
      <point x="823" y="89" type="line"/>
      <point x="837" y="89" type="line"/>
      <point x="827" y="14" type="line"/>
      <point x="828" y="14" type="line"/>
      <point x="826" y="0" type="line"/>
      <point x="461" y="0" type="line"/>
      <point x="421" y="-8"/>
      <point x="384" y="-8" type="qcurve"/>
      <point x="316" y="-8"/>
      <point x="200" y="42"/>
      <point x="116" y="129"/>
      <point x="68" y="246"/>
      <point x="68" y="313" type="qcurve"/>
      <point x="68" y="394"/>
      <point x="135" y="537"/>
      <point x="246" y="645"/>
      <point x="392" y="708"/>
      <point x="472" y="708" type="qcurve"/>
      <point x="492" y="708"/>
      <point x="528" y="704"/>
      <point x="546" y="700" type="qcurve"/>
      <point x="884" y="700" type="line"/>
      <point x="884" y="701" type="line"/>
      <point x="898" y="701" type="line"/>
      <point x="898" y="700" type="line"/>
      <point x="896" y="686" type="line"/>
      <point x="887" y="612" type="line"/>
    </contour>
    <contour>
      <point x="470" y="694" type="qcurve"/>
      <point x="394" y="694"/>
      <point x="254" y="633"/>
      <point x="146" y="529"/>
      <point x="82" y="390"/>
      <point x="82" y="313" type="qcurve"/>
      <point x="82" y="249"/>
      <point x="127" y="137"/>
      <point x="208" y="54"/>
      <point x="318" y="6"/>
      <point x="383" y="6" type="qcurve"/>
      <point x="422" y="6"/>
      <point x="461" y="15" type="qcurve"/>
      <point x="462" y="14" type="line"/>
      <point x="544" y="686" type="line"/>
      <point x="507" y="694"/>
    </contour>
  </outline>
</glyph>
<glyph name="scedilla" format="1">
  <advance width="322"/>
  <unicode hex="015F"/>
  <outline>
    <contour>
      <point x="37" y="87" type="line"/>
      <point x="32" y="45" type="line"/>
      <point x="38" y="36"/>
      <point x="61" y="22"/>
      <point x="89" y="11"/>
      <point x="118" y="6"/>
      <point x="129" y="6" type="qcurve"/>
      <point x="142" y="6"/>
      <point x="180" y="16"/>
      <point x="216" y="38"/>
      <point x="241" y="76"/>
      <point x="241" y="105" type="qcurve"/>
      <point x="241" y="131"/>
      <point x="214" y="161"/>
      <point x="175" y="181"/>
      <point x="128" y="197"/>
      <point x="89" y="217"/>
      <point x="62" y="249"/>
      <point x="62" y="276" type="qcurve"/>
      <point x="62" y="302"/>
      <point x="82" y="341"/>
      <point x="114" y="366"/>
      <point x="154" y="379"/>
      <point x="174" y="379" type="qcurve"/>
      <point x="196" y="379"/>
      <point x="250" y="360"/>
      <point x="268" y="336" type="qcurve"/>
      <point x="263" y="288" type="line"/>
      <point x="250" y="288" type="line"/>
      <point x="254" y="329" type="line"/>
      <point x="240" y="348"/>
      <point x="192" y="365"/>
      <point x="172" y="365" type="qcurve"/>
      <point x="158" y="365"/>
      <point x="125" y="356"/>
      <point x="96" y="335"/>
      <point x="76" y="302"/>
      <point x="76" y="279" type="qcurve"/>
      <point x="76" y="255"/>
      <point x="103" y="226"/>
      <point x="142" y="206"/>
      <point x="189" y="191"/>
      <point x="228" y="170"/>
      <point x="255" y="137"/>
      <point x="255" y="110" type="qcurve"/>
      <point x="255" y="88"/>
      <point x="238" y="45"/>
      <point x="205" y="12"/>
      <point x="157" y="-8"/>
      <point x="126" y="-8" type="qcurve"/>
      <point x="124" y="-20"/>
      <point x="131" y="-37"/>
      <point x="141" y="-49"/>
      <point x="155" y="-57"/>
      <point x="161" y="-61" type="qcurve"/>
      <point x="180" y="-75"/>
      <point x="195" y="-109"/>
      <point x="195" y="-122" type="qcurve"/>
      <point x="195" y="-148"/>
      <point x="179" y="-185"/>
      <point x="152" y="-211"/>
      <point x="117" y="-223"/>
      <point x="99" y="-223" type="qcurve"/>
      <point x="73" y="-223"/>
      <point x="31" y="-194"/>
      <point x="25" y="-165" type="qcurve"/>
      <point x="40" y="-161" type="line"/>
      <point x="44" y="-182"/>
      <point x="76" y="-209"/>
      <point x="101" y="-209" type="qcurve"/>
      <point x="134" y="-209"/>
      <point x="180" y="-163"/>
      <point x="180" y="-128" type="qcurve"/>
      <point x="180" y="-104"/>
      <point x="157" y="-77"/>
      <point x="130" y="-56"/>
      <point x="109" y="-35"/>
      <point x="111" y="-16" type="qcurve"/>
      <point x="112" y="-7" type="line"/>
      <point x="86" y="-5"/>
      <point x="34" y="16"/>
      <point x="18" y="39" type="qcurve"/>
      <point x="24" y="87" type="line"/>
    </contour>
  </outline>
</glyph>
<glyph name="uni0162" format="1">
  <advance width="517"/>
  <unicode hex="0162"/>
  <outline>
    <contour>
      <point x="489" y="582" type="line"/>
      <point x="501" y="686" type="line"/>
      <point x="316" y="686" type="line"/>
      <point x="232" y="0" type="line"/>
      <point x="218" y="0" type="line"/>
      <point x="302" y="686" type="line"/>
      <point x="115" y="686" type="line"/>
      <point x="103" y="582" type="line"/>
      <point x="89" y="582" type="line"/>
      <point x="103" y="700" type="line"/>
      <point x="517" y="700" type="line"/>
      <point x="516" y="686" type="line"/>
      <point x="515" y="686" type="line"/>
      <point x="503" y="582" type="line"/>
    </contour>
    <contour>
      <point x="231" y="-21" type="line"/>
      <point x="217" y="-47"/>
      <point x="200" y="-78"/>
      <point x="184" y="-106"/>
      <point x="167" y="-137"/>
      <point x="153" y="-163" type="qcurve"/>
      <point x="139" y="-163" type="line"/>
      <point x="208" y="-21" type="line"/>
    </contour>
  </outline>
</glyph>
<glyph name="Tcaron" format="1">
  <advance width="517"/>
  <unicode hex="0164"/>
  <outline>
    <contour>
      <point x="489" y="582" type="line"/>
      <point x="501" y="686" type="line"/>
      <point x="316" y="686" type="line"/>
      <point x="232" y="0" type="line"/>
      <point x="218" y="0" type="line"/>
      <point x="302" y="686" type="line"/>
      <point x="115" y="686" type="line"/>
      <point x="103" y="582" type="line"/>
      <point x="89" y="582" type="line"/>
      <point x="103" y="700" type="line"/>
      <point x="517" y="700" type="line"/>
      <point x="516" y="686" type="line"/>
      <point x="515" y="686" type="line"/>
      <point x="503" y="582" type="line"/>
    </contour>
    <contour>
      <point x="210" y="850" type="line"/>
      <point x="226" y="850" type="line"/>
      <point x="318" y="756" type="line"/>
      <point x="434" y="850" type="line"/>
      <point x="450" y="850" type="line"/>
      <point x="315" y="729" type="line"/>
    </contour>
  </outline>
</glyph>
<glyph name="Tbar" format="1">
  <advance width="515"/>
  <unicode hex="0166"/>
  <outline>
    <contour>
      <point x="488" y="582" type="line"/>
      <point x="500" y="686" type="line"/>
      <point x="315" y="686" type="line"/>
      <point x="295" y="522" type="line"/>
      <point x="403" y="522" type="line"/>
      <point x="401" y="508" type="line"/>
      <point x="293" y="508" type="line"/>
      <point x="231" y="0" type="line"/>
      <point x="217" y="0" type="line"/>
      <point x="279" y="508" type="line"/>
      <point x="171" y="508" type="line"/>
      <point x="173" y="522" type="line"/>
      <point x="280" y="522" type="line"/>
      <point x="301" y="686" type="line"/>
      <point x="114" y="686" type="line"/>
      <point x="102" y="582" type="line"/>
      <point x="88" y="582" type="line"/>
      <point x="102" y="700" type="line"/>
      <point x="516" y="700" type="line"/>
      <point x="515" y="686" type="line"/>
      <point x="514" y="686" type="line"/>
      <point x="502" y="582" type="line"/>
    </contour>
  </outline>
</glyph>
<glyph name="Ubreve" format="1">
  <advance width="697"/>
  <unicode hex="016C"/>
  <outline>
    <contour>
      <point x="275" y="700" type="line"/>
      <point x="273" y="686" type="line"/>
      <point x="190" y="686" type="line"/>
      <point x="134" y="229" type="line"/>
      <point x="127" y="175"/>
      <point x="148" y="92"/>
      <point x="198" y="35"/>
      <point x="272" y="6"/>
      <point x="318" y="6" type="qcurve"/>
      <point x="363" y="6"/>
      <point x="444" y="35"/>
      <point x="507" y="92"/>
      <point x="549" y="175"/>
      <point x="556" y="229" type="qcurve"/>
      <point x="612" y="686" type="line"/>
      <point x="614" y="700" type="line"/>
      <point x="707" y="700" type="line"/>
      <point x="705" y="686" type="line"/>
      <point x="626" y="686" type="line"/>
      <point x="570" y="226" type="line"/>
      <point x="563" y="169"/>
      <point x="517" y="81"/>
      <point x="450" y="22"/>
      <point x="364" y="-8"/>
      <point x="316" y="-8" type="qcurve"/>
      <point x="268" y="-8"/>
      <point x="189" y="22"/>
      <point x="136" y="81"/>
      <point x="113" y="169"/>
      <point x="120" y="226" type="qcurve"/>
      <point x="176" y="686" type="line"/>
      <point x="99" y="686" type="line"/>
      <point x="101" y="700" type="line"/>
    </contour>
    <contour>
      <point x="419" y="749" type="qcurve"/>
      <point x="386" y="749"/>
      <point x="330" y="773"/>
      <point x="291" y="815"/>
      <point x="272" y="873"/>
      <point x="275" y="906" type="qcurve"/>
      <point x="290" y="906" type="line"/>
      <point x="287" y="877"/>
      <point x="304" y="826"/>
      <point x="338" y="786"/>
      <point x="388" y="763"/>
      <point x="420" y="763" type="qcurve"/>
      <point x="452" y="763"/>
      <point x="508" y="786"/>
      <point x="551" y="826"/>
      <point x="579" y="877"/>
      <point x="583" y="906" type="qcurve"/>
      <point x="599" y="906" type="line"/>
      <point x="595" y="873"/>
      <point x="562" y="815"/>
      <point x="513" y="773"/>
      <point x="452" y="749"/>
    </contour>
  </outline>
</glyph>
<glyph name="ubreve" format="1">
  <advance width="477"/>
  <unicode hex="016D"/>
  <outline>
    <contour>
      <point x="376" y="338" type="line"/>
      <point x="379" y="361" type="line"/>
      <point x="298" y="361" type="line"/>
      <point x="300" y="375" type="line"/>
      <point x="395" y="375" type="line"/>
      <point x="350" y="14" type="line"/>
      <point x="430" y="14" type="line"/>
      <point x="429" y="0" type="line"/>
      <point x="339" y="0" type="line"/>
      <point x="350" y="98" type="line"/>
      <point x="324" y="50"/>
      <point x="228" y="-7"/>
      <point x="172" y="-7" type="qcurve"/>
      <point x="119" y="-7"/>
      <point x="65" y="55"/>
      <point x="70" y="105" type="qcurve"/>
      <point x="99" y="342" type="line"/>
      <point x="101" y="361" type="line"/>
      <point x="21" y="361" type="line"/>
      <point x="23" y="375" type="line"/>
      <point x="117" y="375" type="line"/>
      <point x="112" y="333" type="line"/>
      <point x="83" y="98" type="line"/>
      <point x="80" y="62"/>
      <point x="123" y="9"/>
      <point x="167" y="7" type="qcurve"/>
      <point x="201" y="7"/>
      <point x="265" y="29"/>
      <point x="316" y="68"/>
      <point x="350" y="123"/>
      <point x="354" y="155" type="qcurve"/>
    </contour>
    <contour>
      <point x="268" y="500" type="qcurve"/>
      <point x="235" y="500"/>
      <point x="179" y="524"/>
      <point x="140" y="566"/>
      <point x="121" y="624"/>
      <point x="124" y="657" type="qcurve"/>
      <point x="139" y="657" type="line"/>
      <point x="136" y="628"/>
      <point x="153" y="577"/>
      <point x="187" y="537"/>
      <point x="237" y="514"/>
      <point x="269" y="514" type="qcurve"/>
      <point x="301" y="514"/>
      <point x="357" y="537"/>
      <point x="400" y="577"/>
      <point x="428" y="628"/>
      <point x="432" y="657" type="qcurve"/>
      <point x="448" y="657" type="line"/>
      <point x="444" y="624"/>
      <point x="411" y="566"/>
      <point x="362" y="524"/>
      <point x="301" y="500"/>
    </contour>
  </outline>
</glyph>
<glyph name="Uogonek" format="1">
  <advance width="697"/>
  <unicode hex="0172"/>
  <outline>
    <contour>
      <point x="275" y="700" type="line"/>
      <point x="273" y="686" type="line"/>
      <point x="190" y="686" type="line"/>
      <point x="134" y="229" type="line"/>
      <point x="127" y="175"/>
      <point x="148" y="92"/>
      <point x="198" y="35"/>
      <point x="272" y="6"/>
      <point x="318" y="6" type="qcurve"/>
      <point x="363" y="6"/>
      <point x="444" y="35"/>
      <point x="507" y="92"/>
      <point x="549" y="175"/>
      <point x="556" y="229" type="qcurve"/>
      <point x="612" y="686" type="line"/>
      <point x="614" y="700" type="line"/>
      <point x="707" y="700" type="line"/>
      <point x="705" y="686" type="line"/>
      <point x="626" y="686" type="line"/>
      <point x="570" y="226" type="line"/>
      <point x="563" y="169"/>
      <point x="518" y="83"/>
      <point x="452" y="24"/>
      <point x="368" y="-7"/>
      <point x="322" y="-8" type="qcurve"/>
      <point x="321" y="-16" type="line"/>
      <point x="318" y="-37"/>
      <point x="287" y="-59"/>
      <point x="251" y="-82"/>
      <point x="222" y="-114"/>
      <point x="222" y="-145" type="qcurve"/>
      <point x="222" y="-173"/>
      <point x="256" y="-209"/>
      <point x="284" y="-209" type="qcurve"/>
      <point x="309" y="-209"/>
      <point x="348" y="-182"/>
      <point x="356" y="-161" type="qcurve"/>
      <point x="371" y="-165" type="line"/>
      <point x="357" y="-194"/>
      <point x="308" y="-223"/>
      <point x="282" y="-223" type="qcurve"/>
      <point x="253" y="-223"/>
      <point x="209" y="-185"/>
      <point x="209" y="-142" type="qcurve"/>
      <point x="209" y="-120"/>
      <point x="234" y="-78"/>
      <point x="260" y="-61" type="qcurve"/>
      <point x="273" y="-53"/>
      <point x="302" y="-33"/>
      <point x="307" y="-8" type="qcurve"/>
      <point x="260" y="-7"/>
      <point x="185" y="25"/>
      <point x="135" y="84"/>
      <point x="113" y="170"/>
      <point x="120" y="226" type="qcurve"/>
      <point x="176" y="686" type="line"/>
      <point x="99" y="686" type="line"/>
      <point x="101" y="700" type="line"/>
    </contour>
  </outline>
</glyph>
<glyph name="zacute" format="1">
  <advance width="367"/>
  <unicode hex="017A"/>
  <outline>
    <contour>
      <point x="306" y="87" type="line"/>
      <point x="297" y="14" type="line"/>
      <point x="295" y="0" type="line"/>
      <point x="-4" y="0" type="line"/>
      <point x="300" y="361" type="line"/>
      <point x="103" y="361" type="line"/>
      <point x="72" y="361"/>
      <point x="47" y="377"/>
      <point x="49" y="406" type="qcurve"/>
      <point x="49" y="410" type="line"/>
      <point x="62" y="410" type="line"/>
      <point x="61" y="398" type="line"/>
      <point x="60" y="389"/>
      <point x="74" y="375"/>
      <point x="91" y="375" type="qcurve"/>
      <point x="326" y="375" type="line"/>
      <point x="22" y="14" type="line"/>
      <point x="284" y="14" type="line"/>
      <point x="293" y="87" type="line"/>
    </contour>
    <contour>
      <point x="187" y="479" type="line"/>
      <point x="293" y="612" type="line"/>
      <point x="309" y="612" type="line"/>
      <point x="203" y="479" type="line"/>
    </contour>
  </outline>
</glyph>
<glyph name="breve" format="1">
  <advance width="509"/>
  <unicode hex="02D8"/>
  <outline>
    <contour>
      <point x="325" y="500" type="qcurve"/>
      <point x="292" y="500"/>
      <point x="236" y="524"/>
      <point x="197" y="566"/>
      <point x="178" y="624"/>
      <point x="181" y="657" type="qcurve"/>
      <point x="196" y="657" type="line"/>
      <point x="193" y="628"/>
      <point x="210" y="577"/>
      <point x="244" y="537"/>
      <point x="294" y="514"/>
      <point x="326" y="514" type="qcurve"/>
      <point x="358" y="514"/>
      <point x="414" y="537"/>
      <point x="457" y="577"/>
      <point x="485" y="628"/>
      <point x="489" y="657" type="qcurve"/>
      <point x="505" y="657" type="line"/>
      <point x="501" y="624"/>
      <point x="468" y="566"/>
      <point x="419" y="524"/>
      <point x="358" y="500"/>
    </contour>
  </outline>
</glyph>
<glyph name="ring" format="1">
  <advance width="423"/>
  <unicode hex="02DA"/>
  <outline>
    <contour>
      <point x="239" y="465" type="qcurve"/>
      <point x="239" y="447"/>
      <point x="265" y="420"/>
      <point x="283" y="420" type="qcurve"/>
      <point x="304" y="420"/>
      <point x="338" y="452"/>
      <point x="338" y="473" type="qcurve"/>
      <point x="338" y="491"/>
      <point x="313" y="518"/>
      <point x="295" y="518" type="qcurve"/>
      <point x="274" y="518"/>
      <point x="239" y="486"/>
    </contour>
    <contour>
      <point x="225" y="462" type="qcurve"/>
      <point x="225" y="491"/>
      <point x="267" y="532"/>
      <point x="296" y="532" type="qcurve"/>
      <point x="321" y="532"/>
      <point x="352" y="500"/>
      <point x="352" y="476" type="qcurve"/>
      <point x="352" y="447"/>
      <point x="310" y="406"/>
      <point x="281" y="406" type="qcurve"/>
      <point x="256" y="406"/>
      <point x="225" y="438"/>
    </contour>
  </outline>
</glyph>
<glyph name="pi" format="1">
  <advance width="348"/>
  <unicode hex="03C0"/>
  <outline>
    <contour>
      <point x="106" y="306" type="line"/>
      <point x="68" y="0" type="line"/>
      <point x="54" y="0" type="line"/>
      <point x="92" y="306" type="line"/>
      <point x="41" y="306" type="line"/>
      <point x="43" y="320" type="line"/>
      <point x="309" y="320" type="line"/>
      <point x="307" y="306" type="line"/>
      <point x="269" y="306" type="line"/>
      <point x="231" y="0" type="line"/>
      <point x="217" y="0" type="line"/>
      <point x="255" y="306" type="line"/>
    </contour>
  </outline>
</glyph>
<glyph name="quotesinglbase" format="1">
  <advance width="212"/>
  <unicode hex="201A"/>
  <outline>
    <contour>
      <point x="37" y="-47" type="qcurve"/>
      <point x="33" y="-29" type="line"/>
      <point x="56" y="-9"/>
      <point x="82" y="50"/>
      <point x="80" y="85" type="qcurve"/>
      <point x="100" y="92" type="line"/>
      <point x="103" y="52"/>
      <point x="69" y="-21"/>
    </contour>
  </outline>
</glyph>
<glyph name="dagger" format="1">
  <advance width="326"/>
  <unicode hex="2020"/>
  <outline>
    <contour>
      <point x="132" y="73" type="line"/>
      <point x="175" y="424" type="line"/>
      <point x="90" y="424" type="line"/>
      <point x="92" y="438" type="line"/>
      <point x="176" y="438" type="line"/>
      <point x="193" y="571" type="line"/>
      <point x="207" y="571" type="line"/>
      <point x="190" y="438" type="line"/>
      <point x="276" y="438" type="line"/>
      <point x="274" y="424" type="line"/>
      <point x="189" y="424" type="line"/>
      <point x="146" y="73" type="line"/>
    </contour>
  </outline>
</glyph>
<glyph name="bullet" format="1">
  <advance width="337"/>
  <unicode hex="2022"/>
  <outline>
    <contour>
      <point x="105" y="293" type="qcurve"/>
      <point x="105" y="323"/>
      <point x="150" y="366"/>
      <point x="179" y="366" type="qcurve"/>
      <point x="205" y="366"/>
      <point x="237" y="332"/>
      <point x="237" y="307" type="qcurve"/>
      <point x="237" y="277"/>
      <point x="193" y="235"/>
      <point x="163" y="235" type="qcurve"/>
      <point x="138" y="235"/>
      <point x="105" y="269"/>
    </contour>
  </outline>
</glyph>
<glyph name="guilsinglleft" format="1">
  <advance width="287"/>
  <unicode hex="2039"/>
  <outline>
    <contour>
      <point x="198" y="77" type="line"/>
      <point x="47" y="239" type="line"/>
      <point x="238" y="400" type="line"/>
      <point x="236" y="383" type="line"/>
      <point x="76" y="239" type="line"/>
      <point x="200" y="93" type="line"/>
    </contour>
  </outline>
</glyph>
<glyph name="guilsinglright" format="1">
  <advance width="287"/>
  <unicode hex="203A"/>
  <outline>
    <contour>
      <point x="43" y="93" type="line"/>
      <point x="203" y="239" type="line"/>
      <point x="79" y="383" type="line"/>
      <point x="81" y="400" type="line"/>
      <point x="232" y="239" type="line"/>
      <point x="41" y="77" type="line"/>
    </contour>
  </outline>
</glyph>
<glyph name="fraction" format="1">
  <advance width="316"/>
  <unicode hex="2044"/>
  <outline>
    <contour>
      <point x="-21" y="0" type="line"/>
      <point x="350" y="755" type="line"/>
      <point x="364" y="755" type="line"/>
      <point x="-7" y="0" type="line"/>
    </contour>
  </outline>
</glyph>
<glyph name="Euro" format="1">
  <advance width="553"/>
  <unicode hex="20AC"/>
  <outline>
    <contour>
      <point x="62" y="393" type="line"/>
      <point x="130" y="393" type="line"/>
      <point x="143" y="438"/>
      <point x="192" y="533"/>
      <point x="265" y="609"/>
      <point x="365" y="658"/>
      <point x="428" y="658" type="qcurve"/>
      <point x="468" y="658"/>
      <point x="519" y="638"/>
      <point x="524" y="634" type="qcurve"/>
      <point x="517" y="624" type="line"/>
      <point x="475" y="644"/>
      <point x="426" y="644" type="qcurve"/>
      <point x="378" y="644"/>
      <point x="290" y="610"/>
      <point x="216" y="545"/>
      <point x="160" y="451"/>
      <point x="144" y="393" type="qcurve"/>
      <point x="389" y="393" type="line"/>
      <point x="387" y="379" type="line"/>
      <point x="140" y="379" type="line"/>
      <point x="134" y="353"/>
      <point x="131" y="328" type="qcurve"/>
      <point x="129" y="317"/>
      <point x="128" y="297"/>
      <point x="127" y="287" type="qcurve"/>
      <point x="376" y="287" type="line"/>
      <point x="374" y="273" type="line"/>
      <point x="127" y="273" type="line"/>
      <point x="127" y="212"/>
      <point x="162" y="113"/>
      <point x="221" y="44"/>
      <point x="299" y="7"/>
      <point x="343" y="7" type="qcurve"/>
      <point x="399" y="7"/>
      <point x="453" y="35" type="qcurve"/>
      <point x="464" y="27" type="line"/>
      <point x="404" y="-7"/>
      <point x="340" y="-7" type="qcurve"/>
      <point x="290" y="-7"/>
      <point x="207" y="36"/>
      <point x="146" y="111"/>
      <point x="112" y="213"/>
      <point x="112" y="273" type="qcurve"/>
      <point x="48" y="273" type="line"/>
      <point x="50" y="287" type="line"/>
      <point x="112" y="287" type="line"/>
      <point x="113" y="297"/>
      <point x="114" y="316"/>
      <point x="116" y="327" type="qcurve"/>
      <point x="118" y="339"/>
      <point x="122" y="365"/>
      <point x="126" y="379" type="qcurve"/>
      <point x="60" y="379" type="line"/>
    </contour>
  </outline>
</glyph>
<glyph name="minus" format="1">
  <advance width="523"/>
  <unicode hex="2212"/>
  <outline>
    <contour>
      <point x="431" y="186" type="line"/>
      <point x="71" y="186" type="line"/>
      <point x="73" y="200" type="line"/>
      <point x="433" y="200" type="line"/>
    </contour>
  </outline>
</glyph>
<glyph name="radical" format="1">
  <advance width="552"/>
  <unicode hex="221A"/>
  <outline>
    <contour>
      <point x="56" y="375" type="line"/>
      <point x="155" y="375" type="line"/>
      <point x="248" y="109" type="line"/>
      <point x="540" y="599" type="line"/>
      <point x="556" y="599" type="line"/>
      <point x="242" y="62" type="line"/>
      <point x="143" y="361" type="line"/>
      <point x="54" y="361" type="line"/>
    </contour>
  </outline>
</glyph>
<glyph name="infinity" format="1">
  <advance width="479"/>
  <unicode hex="221E"/>
  <outline>
    <contour>
      <point x="318" y="237" type="qcurve"/>
      <point x="292" y="237"/>
      <point x="250" y="257"/>
      <point x="241" y="275" type="qcurve"/>
      <point x="229" y="257"/>
      <point x="182" y="237"/>
      <point x="156" y="237" type="qcurve"/>
      <point x="121" y="237"/>
      <point x="85" y="273"/>
      <point x="85" y="295" type="qcurve"/>
      <point x="85" y="320"/>
      <point x="131" y="363"/>
      <point x="171" y="363" type="qcurve"/>
      <point x="197" y="363"/>
      <point x="239" y="343"/>
      <point x="247" y="325" type="qcurve"/>
      <point x="259" y="343"/>
      <point x="307" y="363"/>
      <point x="333" y="363" type="qcurve"/>
      <point x="368" y="363"/>
      <point x="400" y="327"/>
      <point x="400" y="306" type="qcurve"/>
      <point x="400" y="282"/>
      <point x="359" y="237"/>
    </contour>
    <contour>
      <point x="251" y="300" type="qcurve"/>
      <point x="250" y="289"/>
      <point x="261" y="272"/>
      <point x="280" y="258"/>
      <point x="306" y="251"/>
      <point x="319" y="251" type="qcurve"/>
      <point x="352" y="251"/>
      <point x="386" y="288"/>
      <point x="386" y="303" type="qcurve"/>
      <point x="386" y="318"/>
      <point x="360" y="349"/>
      <point x="331" y="349" type="qcurve"/>
      <point x="318" y="349"/>
      <point x="291" y="342"/>
      <point x="268" y="328"/>
      <point x="252" y="310"/>
    </contour>
    <contour>
      <point x="237" y="300" type="qcurve"/>
      <point x="238" y="310"/>
      <point x="227" y="328"/>
      <point x="208" y="342"/>
      <point x="182" y="349"/>
      <point x="169" y="349" type="qcurve"/>
      <point x="137" y="349"/>
      <point x="103" y="312"/>
      <point x="103" y="297" type="qcurve"/>
      <point x="103" y="282"/>
      <point x="128" y="251"/>
      <point x="157" y="251" type="qcurve"/>
      <point x="170" y="251"/>
      <point x="198" y="258"/>
      <point x="220" y="272"/>
      <point x="236" y="289"/>
    </contour>
  </outline>
</glyph>
<glyph name="greaterequal" format="1">
  <advance width="577"/>
  <unicode hex="2265"/>
  <outline>
    <contour>
      <point x="87" y="236" type="line"/>
      <point x="528" y="473" type="line"/>
      <point x="145" y="710" type="line"/>
      <point x="147" y="726" type="line"/>
      <point x="554" y="473" type="line"/>
      <point x="436" y="410"/>
      <point x="203" y="283"/>
      <point x="85" y="220" type="qcurve"/>
    </contour>
    <contour>
      <point x="71" y="110" type="line"/>
      <point x="431" y="110" type="line"/>
      <point x="429" y="96" type="line"/>
      <point x="69" y="96" type="line"/>
    </contour>
  </outline>
</glyph>
<glyph name="lozenge" format="1">
  <advance width="416"/>
  <unicode hex="25CA"/>
  <outline>
    <contour>
      <point x="72" y="396" type="line"/>
      <point x="265" y="730" type="line"/>
      <point x="376" y="396" type="line"/>
      <point x="183" y="62" type="line"/>
    </contour>
    <contour>
      <point x="88" y="396" type="line"/>
      <point x="189" y="109" type="line"/>
      <point x="360" y="396" type="line"/>
      <point x="259" y="683" type="line"/>
    </contour>
  </outline>
</glyph>
<glyph name="fi" format="1">
  <advance width="515"/>
  <unicode hex="FB01"/>
  <outline>
    <contour>
      <point x="86" y="37" type="line"/>
      <point x="83" y="14" type="line"/>
      <point x="184" y="14" type="line"/>
      <point x="182" y="0" type="line"/>
      <point x="-13" y="0" type="line"/>
      <point x="-11" y="14" type="line"/>
      <point x="68" y="14" type="line"/>
      <point x="111" y="361" type="line"/>
      <point x="46" y="361" type="line"/>
      <point x="48" y="375" type="line"/>
      <point x="113" y="375" type="line"/>
      <point x="131" y="518" type="line"/>
      <point x="138" y="573"/>
      <point x="178" y="659"/>
      <point x="235" y="717"/>
      <point x="306" y="748"/>
      <point x="344" y="750" type="qcurve"/>
      <point x="342" y="736" type="line"/>
      <point x="308" y="736"/>
      <point x="242" y="706"/>
      <point x="188" y="650"/>
      <point x="151" y="571"/>
      <point x="145" y="522" type="qcurve"/>
      <point x="127" y="375" type="line"/>
      <point x="432" y="375" type="line"/>
      <point x="387" y="14" type="line"/>
      <point x="468" y="14" type="line"/>
      <point x="467" y="0" type="line"/>
      <point x="292" y="0" type="line"/>
      <point x="293" y="14" type="line"/>
      <point x="373" y="14" type="line"/>
      <point x="376" y="37" type="line"/>
      <point x="416" y="361" type="line"/>
      <point x="125" y="361" type="line"/>
      <point x="85" y="37" type="line"/>
    </contour>
  </outline>
</glyph>
